<?xml version="1.0" encoding="utf-8"?>
<!-- Generator: Adobe Illustrator 25.0.0, SVG Export Plug-In . SVG Version: 6.00 Build 0)  -->
<svg version="1.1" id="Calque_1" xmlns="http://www.w3.org/2000/svg" xmlns:xlink="http://www.w3.org/1999/xlink" x="0px" y="0px"
	 viewBox="0 0 1133.86 1133.86" style="enable-background:new 0 0 1133.86 1133.86;" xml:space="preserve">
<style type="text/css">
	.st0{fill:#4F9982;}
</style>
<g>
	<path class="st0" d="M711.45,822.19c8.03,0.38,16,1.4,24,2.21l23.99,2.38c32.07,2.67,63.86,7.54,95.82,11.74
		c16.06,1.66,31.83,4.96,47.76,7.52c15.9,2.69,31.86,5.24,47.87,7.69c-15.55-4.36-31.15-8.62-46.81-12.74
		c-15.66-4.07-31.29-8.46-47.19-11.46l-47.66-9.52c-7.94-1.68-15.91-3.12-23.95-4.15l-24.06-3.49c-16.06-2.19-32.07-5.01-48.22-6.41
		l-12.3-1.15l-30.05,14.69L711.45,822.19z"/>
	<path class="st0" d="M373.05,807.61c-64.31,7.94-128.43,19.62-190.08,39.45c63.46-12.34,127.45-19.88,191.54-25.06
		c28.03-2.21,56.1-3.77,84.17-4.86l-30.91-15.11C409.49,803.58,391.25,805.41,373.05,807.61z"/>
	<path class="st0" d="M626.61,1060.68c-0.69-0.05-1.39-0.06-2.09-0.11l-9.94,9.69l-7.77,7.57c6.36,0.15,12.71,0.28,19.06,0.46
		l30.4,0.79l30.4,1.14c40.58,1.3,81.09,3.89,121.99,5.14c-39.87-8.93-80.28-15.58-120.95-19.62
		C667.42,1063.24,647.01,1062.12,626.61,1060.68z"/>
	<path class="st0" d="M504.43,1059.35c-20.58,0.73-41.14,1.95-61.65,3.7c-40.71,3.49-81.39,8.66-121.23,18.06
		c40.82-1.76,81.39-2.87,121.97-3.61c20.29-0.24,40.55-0.66,60.82-0.59l18.04-0.07l-6.76-6.59L504.43,1059.35z"/>
	<polygon class="st0" points="576.38,1053.27 565.1,1030.42 553.83,1053.27 528.61,1056.93 546.86,1074.72 542.55,1099.84 
		565.1,1087.98 587.66,1099.84 583.35,1074.72 601.6,1056.93 	"/>
	<path class="st0" d="M567.07,849.39l8.17-3.99l8.17-3.99l128.89-62.98l118.56-57.94l8.85-4.32l8.85-4.32l1.4-9.74l7.03-48.79
		l2.69-2.42l0.16-0.14l0.16-0.15c11.23-10.55,20.11-21.39,27.15-33.15l0.32-0.55l0.6-1.04c1.37-2.35,2.67-4.93,3.82-7.21
		c3.18-6.5,5.91-13.3,8.19-20.38l0.48-1.53c0.7-2.23,1.5-4.75,2.19-7.59c6.4-26.63,5.33-52.59,4.12-65.69l-0.02-0.2l-0.02-0.2
		l-0.75-6.6c-4.11-36.03-9.86-69.17-17.11-98.55c0.29-0.31,0.58-0.63,0.86-0.94c27.42-28.71,49.98-64.58,68.96-109.65
		c24.86-59.05,26.68-118.73,26.74-121.25l1.41-54.19l1.41-54.01v0c-4.87,7.8-50.42,79.15-113.85,125.48
		c-1.41,1.03-2.88,2.07-4.35,3.11c-0.42,0.29-0.83,0.6-1.25,0.89l0,0l0-0.01v0c-20.48,14.39-46.51,29.15-79.64,42.74h0
		c-43.93-36.58-99.68-63-157.25-74.49l-22.25-4.44c-9.9-1.87-24.3-2.79-43-2.79c-18.92,0-33.27,0.9-42.68,2.68l-22.37,4.42
		c-57.71,11.4-113.6,37.78-157.69,74.4c-13.57-5.59-25.96-11.37-37.25-17.24c-18.83-9.79-34.63-19.82-47.87-29.6
		c-5.94-4.36-11.72-8.93-17.32-13.65c-26.15-22.02-48.46-47.19-65.01-68.1c-0.05-0.07-0.1-0.13-0.16-0.2
		c-17.64-22.31-28.72-39.73-30.9-43.23l0,0l1.41,54.06l1.41,54.2c0.07,2.51,1.88,62.2,26.74,121.24
		c18.98,45.08,41.54,80.95,68.96,109.66c0.06,0.07,0.12,0.13,0.18,0.2c-7.33,29.56-13.15,62.96-17.29,99.29
		c-0.17,1.38-4.21,36.54,4.48,72.69c8.66,36.04,29.12,59.26,45.78,74.29l7.01,48.66l1.4,9.74l8.85,4.32l56,27.36l29.8,14.57
		l170.49,83.31l8.17,3.99L567.07,849.39L567.07,849.39z M558.9,824.69l-170.49-83.31l0.01,0l-85.8-41.93l-7.99-55.48
		c-17.73-15.05-37.11-35.84-45.12-69.16s-4.09-66.23-4.09-66.23c4.15-36.44,10.01-69.78,17.41-99.1l1.93-7.64
		c-2.31-2.38-4.68-4.88-7.12-7.56c-25.9-27.07-47.3-61.15-65.42-104.18c-23.51-55.84-25.23-112.14-25.29-114.51l-1.41-54.2
		l34.4,41.9c23.38,28.48,67.39,66.92,147.58,97.96l6.56-5.54c42.01-35.48,95.73-61.05,151.27-72.02l22.22-4.39
		c6.53-1.23,18.58-2.35,39.22-2.35c20.72,0,32.82,1.2,39.35,2.43l22.25,4.44c55.29,11.04,108.77,36.57,150.6,71.9l6.82,5.76
		c80.57-31.09,124.72-69.65,148.15-98.2l34.4-41.9l-1.41,54.2c-0.06,2.37-1.78,58.66-25.29,114.51
		c-18.12,43.03-39.52,77.11-65.42,104.18c-2.67,2.93-5.27,5.68-7.79,8.26l1.9,7.57c7.32,29.17,13.13,62.3,17.25,98.47l0.75,6.6
		c1.04,11.24,2.17,35.29-3.68,59.63c0,0,0,0,0,0.01c-0.65,2.71-1.49,5.21-2.29,7.76c-1.87,5.81-4.19,11.77-7.1,17.73
		c-1.1,2.19-2.2,4.38-3.4,6.43c-0.22,0.39-0.46,0.78-0.68,1.17c-7.01,11.71-15.44,21.17-23.93,29.14l-7.73,6.93l-7.99,55.48
		l-8.85,4.32L704.13,761.7l-128.89,62.98l-8.17,3.99L558.9,824.69z"/>
	<path class="st0" d="M695.96,744.98c21.76-10.64,110-53.75,117.93-57.63l-98.98,28.01l102.64-49.3l7.11-49.35l10.65-64.63
		l1.2,69.37l-0.04,0.27c22.56-20.36,30.64-47.69,33.37-67.8c-2.78-9.97-6.65-18.75-11.63-26.3c-0.76-1.17-1.54-2.29-2.32-3.36
		c-0.7-0.94-1.39-1.88-2.13-2.78c-0.52-0.65-1.04-1.19-1.56-1.8c-1.07-1.22-2.1-2.48-3.25-3.62c-0.22-0.22-0.43-0.41-0.65-0.63
		c-1.98-1.92-4.04-3.74-6.22-5.4c-3.79-2.9-7.9-5.39-12.28-7.54c-0.13-0.05-0.33-0.14-0.42-0.17c-4.99-2.4-10.18-4.22-15.44-5.57
		c-0.28-0.07-0.56-0.15-0.85-0.22c-1.66-0.41-3.33-0.79-5.01-1.11c-0.04-0.01-0.08-0.01-0.12-0.02c-3.21-0.61-6.43-1.04-9.64-1.35
		c-0.54-0.05-1.07-0.11-1.61-0.16c-1.42-0.12-2.84-0.2-4.26-0.27c-0.99-0.05-2-0.07-3.01-0.1c-1.06-0.03-2.12-0.06-3.16-0.06
		c-0.37,0-0.72,0.03-1.08,0.03c-3.81,0.03-7.71,0.23-11.71,0.58c-0.55,0.05-1.12,0.08-1.66,0.13c-4.66,0.46-9.43,1.12-14.28,2.01
		c-6.09,1.12-12.84,2.12-20.01,3.03c-0.53,0.07-1.04,0.14-1.57,0.21c-1.48,0.18-3.01,0.35-4.53,0.53c-1.16,0.13-2.29,0.27-3.47,0.4
		c-1.18,0.13-2.4,0.25-3.6,0.37c-1.55,0.16-3.08,0.33-4.66,0.48c-1.01,0.1-2.04,0.19-3.06,0.28c-1.81,0.17-3.61,0.34-5.45,0.5
		c-0.91,0.08-1.83,0.15-2.75,0.23c-1.96,0.17-3.91,0.33-5.89,0.49c-1.28,0.1-2.57,0.19-3.86,0.29c-1.63,0.12-3.24,0.25-4.88,0.36
		c-1.78,0.12-3.56,0.24-5.34,0.36c-1.16,0.08-2.31,0.16-3.47,0.23c-2.73,0.17-5.47,0.34-8.2,0.49c-0.2,0.01-0.4,0.02-0.6,0.04
		c-17.83,1.02-35.45,1.7-50.91,2.15l-0.55,0.02v15.36c13.12,0.27,26.25,0.49,39.36,0.52c1.21,0,2.42,0,3.63,0
		c14.54,0,29.08-0.24,43.62-0.75c15.74-0.6,31.49-1.43,47.15-3.48c-15.4,3.58-31.07,5.96-46.75,8.11
		c-15.69,2.11-31.44,3.9-47.2,5.41c-13.26,1.28-26.53,2.36-39.81,3.39v9.23v8l-5.81,5.5l-39.29,37.24l-12.8,12.14l-12.8-12.14
		l-39.29-37.24l-5.81-5.5v-8v-9.66c-11.74-0.93-23.48-1.86-35.2-2.99c-15.76-1.5-31.51-3.29-47.2-5.39
		c-15.68-2.14-31.36-4.53-46.75-8.1c15.66,2.05,31.41,2.89,47.15,3.49c14.67,0.52,29.35,0.77,44.03,0.77c1.07,0,2.15,0,3.22,0
		c11.58-0.02,23.17-0.24,34.76-0.45v-15.43l-0.54-0.02c-41.17-1.2-97.65-3.98-132.93-10.46c-4.85-0.89-9.6-1.55-14.26-2.01
		c-0.55-0.05-1.13-0.08-1.69-0.13c-3.99-0.36-7.9-0.55-11.71-0.58c-0.36,0-0.72-0.03-1.08-0.03c-1.24,0-2.5,0.05-3.75,0.09
		c-0.92,0.03-1.84,0.04-2.74,0.09c-1.52,0.08-3.05,0.19-4.59,0.33c-0.66,0.06-1.32,0.13-1.98,0.2c-1.66,0.18-3.33,0.37-4.99,0.62
		c-0.09,0.01-0.18,0.03-0.28,0.05c-7.83,1.22-15.62,3.36-23.03,6.7c-0.26,0.12-0.53,0.23-0.79,0.35c-1.62,0.75-3.21,1.58-4.79,2.45
		c-0.37,0.21-0.75,0.41-1.11,0.62c-1.51,0.87-2.99,1.81-4.45,2.8c-0.14,0.09-0.27,0.19-0.41,0.28l0,0.02
		c-2.13,1.48-4.45,3.28-6.83,5.39c-0.11,0.09-0.21,0.18-0.32,0.28c-2.44,2.19-4.92,4.72-7.32,7.63c-0.71,0.86-1.39,1.75-2.06,2.65
		c-1,1.34-1.98,2.74-2.92,4.23c-5.27,8.17-9.33,17.69-12.07,28.63c3.23,20.58,12.19,47.59,35.67,67.21l0.03,0.12l0-0.07l0.78-69.03
		l11.91,70.08l5.89,40.87l102.73,49.35l-99.19-28.07l246.94,120.67C567.07,807.97,673.17,756.12,695.96,744.98z M783.54,544.98
		c-0.71,89.15-77.84,105.08-132.84,105.08c-30.56,0-54.28-4.91-54.28-4.91C701.19,569.01,783.54,544.98,783.54,544.98z
		 M480.73,650.05c-20.39,0-43.83-2.19-65.29-9.48c-0.82,1.36-1.58,2.75-2.41,4.11c-6.46,10.57-13.31,20.95-21.26,30.76
		c3.36-12.17,7.81-23.78,12.65-35.18c0.48-1.13,1.01-2.24,1.5-3.37c-32.1-13.77-57.67-40.76-58.07-91.91
		c0,0,37.52,11.55,86.43,36.29c1.36-2.31,2.67-4.65,4.07-6.94c6.46-10.57,13.31-20.95,21.24-30.76
		c-3.37,12.16-7.83,23.77-12.67,35.17c-1.05,2.47-2.19,4.9-3.28,7.36c28.88,15.18,60.96,34.75,91.33,59.05
		C534.97,645.14,511.26,650.05,480.73,650.05z"/>
	<path class="st0" d="M778.29,475.03l-35.95-24.31l88.27,31.79l-0.22-0.03c8.37,3.24,16.08,7.48,22.99,12.76
		c5.87,4.49,11.11,9.64,15.71,15.45c-3.19-27.97-8.27-61.21-16.17-93.37c-9.68,8.58-16.47,13.38-18.01,14.43l-0.41,0.32l-0.57,0.38
		c-4.14,2.73-9.23,3.72-12.78,4.08c-1.39,0.14-2.84,0.21-4.33,0.21c-5.88,0-15.29-1.09-26.95-6.21
		c-19.68-7.28-36.14-22.51-48.92-45.27l-0.46-0.83c-0.25-0.4-0.51-0.81-0.76-1.24c-2.09-3.53-3.97-6.96-5.66-10.3l-3.97-8.43
		c-23.89-55.12,5.69-81.77,12.48-86.96l2.61-2l3.14-0.98c5.92-1.85,11.62-3.75,17.22-5.67c-39.02-32.55-88.5-56.31-140.83-66.76
		v285.96c41.68-1.23,95.9-3.98,129.45-10.14C762.49,476.38,770.53,475.43,778.29,475.03z"/>
	<path class="st0" d="M279.63,495.24c6.92-5.29,14.64-9.53,23.03-12.77l-0.34,0.04l88.27-31.79l-35.95,24.31
		c7.78,0.39,15.85,1.35,24.18,2.88c33.8,6.21,88.38,8.95,130.1,10.17V201.95c-52.46,10.36-102.08,34.11-141.23,66.69
		c5.78,2,11.7,3.96,17.82,5.87l3.14,0.98l2.61,2c6.79,5.19,36.41,31.88,12.42,87.09l-4.56,9.57c-1.52,2.94-3.19,5.95-5.01,9.04
		c-0.24,0.4-0.48,0.79-0.72,1.18l-0.5,0.88c-12.78,22.77-29.24,37.99-48.92,45.27c-11.66,5.13-21.07,6.21-26.95,6.21
		c-1.48,0-2.94-0.07-4.33-0.21c-3.55-0.36-8.64-1.35-12.78-4.08l-0.57-0.38l-0.38-0.29c-0.99-0.67-8.17-5.61-18.75-15.06
		c-7.99,32.36-13.12,65.84-16.32,93.99C268.51,504.89,273.75,499.73,279.63,495.24z"/>
	<path class="st0" d="M755.75,373.71c0.5,0.84,0.92,1.61,1.43,2.42c12.76,22.73,27.57,32.77,39.67,37.11
		c7.89,3.55,14.91,4.87,19.97,4.87c0.89,0,1.71-0.04,2.48-0.12c2.64-0.26,4.06-0.88,4.38-1.1l0.39-0.3l0.38-0.24
		c0.22-0.15,17.06-11.57,38.17-34.78c27.93-29.14,47.5-64.57,61.87-98.7c22.42-53.25,23.84-107.77,23.84-107.77
		c-29.09,35.43-86.05,83.36-194.45,117.18C747.31,297.29,724.06,320.09,755.75,373.71z M920.17,240.23
		c0,0-24.36,101.13-102.14,149.12C818.02,389.34,886.23,323.07,920.17,240.23z"/>
	<path class="st0" d="M309.41,416.35l0.38,0.24l0.39,0.3c0.32,0.21,1.74,0.83,4.38,1.1c0.76,0.08,1.59,0.12,2.48,0.12
		c5.06,0,12.08-1.32,19.97-4.87c12.1-4.34,26.91-14.38,39.67-37.12c0.5-0.81,0.93-1.58,1.43-2.42c31.69-53.62,8.44-76.42,1.88-81.43
		c-108.4-33.82-165.36-81.75-194.45-117.18c0,0,1.42,54.52,23.84,107.77c14.37,34.13,33.94,69.56,61.87,98.7
		C292.35,404.79,309.19,416.2,309.41,416.35z M313.03,391.93c-76.52-49.98-98.26-151.7-98.26-151.7
		C246.56,323.92,313.03,391.93,313.03,391.93z"/>
	<path class="st0" d="M606.12,544.46v-4.21v-18.23v-14.81v-0.55v-18.07v-0.55V202.08v-3.36c0,0-9.57-3.15-39.35-3.15
		c-29.78,0-39.22,3.15-39.22,3.15v3.23v286.12v0.52v18.08v0.56v14.89v18.27v4.06v0l39.29,37.24L606.12,544.46z M566.83,240.23
		c6.55,0,11.86,5.31,11.86,11.86c0,6.55-5.31,11.86-11.86,11.86c-6.55,0-11.86-5.31-11.86-11.86
		C554.97,245.54,560.28,240.23,566.83,240.23z M566.83,331.16c6.55,0,11.86,5.31,11.86,11.86s-5.31,11.86-11.86,11.86
		c-6.55,0-11.86-5.31-11.86-11.86S560.28,331.16,566.83,331.16z M566.83,422.09c6.55,0,11.86,5.31,11.86,11.86
		c0,6.55-5.31,11.86-11.86,11.86c-6.55,0-11.86-5.31-11.86-11.86C554.97,427.4,560.28,422.09,566.83,422.09z M554.97,524.88
		c0-6.55,5.31-11.86,11.86-11.86c6.55,0,11.86,5.31,11.86,11.86s-5.31,11.86-11.86,11.86C560.28,536.74,554.97,531.43,554.97,524.88
		z"/>
	<path class="st0" d="M245.03,946.34c-7.12,1.04-14.24,2.11-21.35,3.22c-3.78,0.59-5.67-0.78-5.67-4.12c0-7.2,0-14.4,0-21.61
		c0-3.33,1.89-5.31,5.67-5.9c2.19-0.34,4.39-0.68,6.59-1.02c3.78-0.58,5.68,0.81,5.68,4.14c0,5.25,0,10.51,0,15.76
		c13.25-4.31,26.51-8.5,39.79-12.56c0-4.68,0-9.36,0-14.04c0-18.78-11.08-26.81-33.2-23.58c-10.38,1.53-20.75,3.13-31.11,4.8
		c-22.08,3.58-33.09,15.02-33.09,33.8c0,10.01,0,20.02,0,30.03c0,9.25,2.3,15.93,6.91,20.06c4.6,4.13,12.5,5.23,23.69,3.41
		c7.26-1.18,14.52-2.33,21.79-3.43c3.78-0.58,5.68,0.81,5.68,4.15c0,6.9,0,13.8,0,20.7c0,3.34-1.9,5.29-5.68,5.86
		c-2.2,0.34-4.39,0.67-6.59,1.01c-3.78,0.59-5.67-0.78-5.67-4.11c0-5.25,0-10.51,0-15.76c-13.24,4.41-26.46,8.95-39.67,13.6
		c0,4.68,0,9.36,0,14.04c0,18.82,11.09,26.18,33.32,22.58c10.28-1.66,20.58-3.24,30.88-4.76c22.12-3.23,33.21-14,33.2-32.83
		c0-10.01,0-20.02,0-30.03c0-9.1-2.39-15.68-7.17-19.74C264.25,945.97,256.24,944.7,245.03,946.34z"/>
	<path class="st0" d="M383.36,988.33c0-10.01,0-20.02,0-30.03c0-9.1-2.4-15.8-7.2-20.09c-4.79-4.29-12.83-5.94-24.09-4.85
		c-7.15,0.69-14.3,1.42-21.45,2.18c-3.8,0.41-5.7-1.05-5.7-4.39c0-7.2,0-14.4,0-21.61c0-3.33,1.9-5.21,5.7-5.62
		c2.21-0.24,4.41-0.47,6.62-0.7c3.8-0.39,5.7,1.09,5.7,4.42c0,5.25,0,10.51,0,15.76c13.31-3.66,26.63-7.21,39.96-10.63
		c0-4.68,0-9.36,0-14.04c0-18.78-11.13-27.35-33.34-25.19c-10.42,1.02-20.84,2.12-31.26,3.28c-22.19,2.51-33.26,13.41-33.26,32.19
		c0,10.01,0,20.02,0,30.03c0,9.25,2.31,16.05,6.94,20.39c4.63,4.36,12.56,5.84,23.81,4.56c7.3-0.83,14.59-1.62,21.9-2.37
		c3.8-0.39,5.7,1.09,5.7,4.42c0,6.9,0,13.8,0,20.7c0,3.34-1.9,5.19-5.7,5.59c-2.21,0.23-4.41,0.46-6.62,0.69
		c-3.8,0.4-5.7-1.05-5.7-4.39c0-5.25,0-10.51,0-15.76c-13.3,3.77-26.6,7.66-39.88,11.67c0,4.68,0,9.36,0,14.04
		c0,18.82,11.15,26.72,33.49,24.2c10.33-1.16,20.68-2.24,31.02-3.25C372.24,1017.39,383.37,1007.15,383.36,988.33z"/>
	<path class="st0" d="M492.79,906.4c0-4.68,0-9.36,0-14.04c0-18.78-11.22-27.9-33.65-26.83c-10.83,0.52-21.66,1.13-32.49,1.81
		c-22.41,1.43-33.61,11.8-33.61,30.58c0,29.88,0,59.75,0,89.63c0,18.82,11.2,27.26,33.61,25.83c10.83-0.68,21.66-1.29,32.49-1.81
		c22.43-1.07,33.65-10.76,33.65-29.58c0-11.49,0-22.98,0-34.47c0-9.61,4.25-18.2,4.25-18.2c-1.42,0.04-2.83,0.09-4.25,0.14
		c0,0,0-0.01,0-0.01c-14.84,0.49-29.67,1.14-44.5,1.93c-2.33,8.54-4.66,17.09-7,25.63c3.81-0.22,7.63-0.42,11.44-0.62
		c0,8.11,0,16.23,0,24.34c0,3.34-1.91,5.1-5.72,5.31c-2.75,0.15-5.49,0.3-8.24,0.46c-3.81,0.22-5.72-1.33-5.72-4.67
		c0-27.9,0-55.81,0-83.71c0-3.33,1.91-5.12,5.72-5.34c2.75-0.16,5.49-0.31,8.24-0.46c3.81-0.2,5.72,1.37,5.72,4.7
		c0,6.01,0,12.02,0,18.04C466.07,912.05,479.43,909.16,492.79,906.4z"/>
	<path class="st0" d="M614.3,994.76c-3.22,9.2-8.65,14.53-8.65,14.54c1.62,0.03,3.24,0.06,4.86,0.09
		c13.12,0.26,26.24,0.63,39.36,1.12c1.6-7.22,3.21-14.44,4.81-21.65c11.75,0.46,23.5,1.02,35.24,1.67
		c1.52,7.36,3.05,14.73,4.57,22.09c13.41,0.77,26.82,1.66,40.22,2.67c1.62,0.12,3.24,0.25,4.86,0.37c0,0-5.44-5.87-8.65-15.41
		c-9.84-38.84-19.69-77.61-29.55-116.32c-1.89-9.03,0.67-16.9,0.67-16.9c-1.69-0.1-3.37-0.2-5.06-0.3c0,0,0,0,0,0
		c-16.23-0.95-32.47-1.72-48.72-2.31c-0.27,1.01-0.53,2.04-0.79,3.05c0.26-1.02,0.52-2.03,0.79-3.05c-1.69-0.06-3.38-0.12-5.07-0.18
		c0,0,2.68,8.43,0.57,17.47C633.94,919.32,624.12,957.01,614.3,994.76z M672.53,908.88c3.74,17.69,7.48,35.39,11.21,53.1
		c-7.63-0.4-15.26-0.76-22.89-1.08C664.75,943.55,668.64,926.21,672.53,908.88z"/>
	<path class="st0" d="M1054.42,916.87c-21.82-4.89-43.69-9.44-65.61-13.66c0,0,0,0,0-0.01c-0.27-0.05-0.54-0.1-0.81-0.16
		c-0.03,0-0.05-0.01-0.08-0.02c0,0,0,0,0,0c-1.37-0.26-2.74-0.53-4.11-0.79c0,0,3.68,8.22,4.11,17.21c0,37.5,0,75,0,112.49
		c-0.26,9.16-4.14,16.33-4.14,16.33c1.41,0.27,2.82,0.54,4.23,0.81c22.19,4.27,44.33,8.87,66.42,13.82
		c22.04,4.96,33.01-1.72,33.01-20.54c0-29.88,0-59.75,0-89.63C1087.43,933.96,1076.46,921.83,1054.42,916.87z M1048.12,1030.34
		c0,3.34-1.88,4.59-5.63,3.77c-5.03-1.1-10.06-2.18-15.09-3.24c0-31.24,0-62.48,0-93.72c5.03,1.06,10.06,2.14,15.09,3.24
		c3.75,0.82,5.63,2.91,5.63,6.24C1048.12,974.54,1048.12,1002.44,1048.12,1030.34z"/>
	<path class="st0" d="M169.76,1029.81c-9.74-36.33-19.47-72.58-29.19-108.78c-1.88-8.56,0.65-17.09,0.65-17.09
		c-1.67,0.32-3.33,0.65-5,0.98v0c-16.03,3.16-32.03,6.49-48,10c-1.66,0.36-3.32,0.73-4.98,1.1c0,0,2.63,7.74,0.56,17.31
		c-9.65,40.12-19.3,80.31-28.93,120.56c-3.16,10-8.46,16.68-8.46,16.68c1.58-0.38,3.17-0.76,4.75-1.13
		c12.86-3.06,25.73-6,38.63-8.82c1.58-7.62,3.15-15.25,4.73-22.87c11.56-2.51,23.13-4.92,34.71-7.24c1.5,6.98,3.01,13.96,4.51,20.94
		c13.24-2.62,26.49-5.12,39.76-7.5c1.61-0.29,3.21-0.57,4.82-0.86C178.34,1043.08,172.94,1038.57,169.76,1029.81z M100.61,1008.23
		c3.83-18.33,7.66-36.66,11.49-54.97c3.68,16.75,7.37,33.5,11.05,50.27C115.63,1005.05,108.12,1006.62,100.61,1008.23z"/>
	<path class="st0" d="M848.26,1010.96c-0.37-0.79-0.75-1.55-1.1-2.38c0.03,0.07,0.05,0.14,0.08,0.21
		c-5.96-12.61-11.91-25.23-17.87-37.78c13.06-1.78,19.59-9.79,19.59-24.21c0-12.59,0-25.17,0-37.76c0-18.78-11.15-29.69-33.49-32.22
		c-22.32-2.5-44.68-4.66-67.05-6.49c0,0,0,0,0-0.01c-0.22-0.02-0.44-0.03-0.65-0.05c-0.03,0-0.06-0.01-0.09-0.01c0,0,0,0,0,0
		c-1.44-0.12-2.88-0.23-4.32-0.35c0,0,4.24,8.79,4.24,18.4c0.03-0.58,0.05-1.16,0.08-1.73c0,37.8,0,75.6,0,113.4
		c-0.03-0.58-0.05-1.16-0.08-1.75c0,9.61-4.24,17.72-4.24,17.72c1.46,0.12,2.93,0.23,4.39,0.35c13.3,1.08,26.6,2.28,39.89,3.61
		c0-17.29,0-34.58,0-51.87c0.84,0.08,1.67,0.17,2.51,0.25c7.76,18.07,15.51,36.18,23.27,54.33c14.25,1.58,28.48,3.31,42.7,5.17
		c1.05,0.14,2.1,0.27,3.16,0.41c0,0-5.26-5.78-9.98-15.09C848.94,1012.4,848.6,1011.68,848.26,1010.96z M809.07,938.21
		c0,3.34-1.9,4.79-5.7,4.39c-5.25-0.56-10.49-1.1-15.74-1.62c0-12.89,0-25.78,0-38.67c5.25,0.52,10.5,1.06,15.74,1.62
		c3.8,0.41,5.7,2.29,5.7,5.62C809.07,919.11,809.07,928.66,809.07,938.21z"/>
	<path class="st0" d="M967.47,1028.45c-6.1-13.33-12.2-26.66-18.3-39.93c12.98-1.07,19.46-8.72,19.47-23.14c0-12.59,0-25.17,0-37.76
		c0-18.78-11.08-30.3-33.29-34.04c-22.16-3.71-44.36-7.08-66.59-10.12c0,0,0,0,0-0.01c-0.25-0.03-0.5-0.07-0.75-0.1
		c-0.04,0-0.07-0.01-0.1-0.02c0,0,0,0,0,0c-1.39-0.19-2.79-0.38-4.18-0.57c0,0,3.96,8.54,4.18,17.84c0,37.16,0,74.32,0,111.48
		c-0.22,9.25-4.18,16.71-4.18,16.71c1.42,0.19,2.85,0.38,4.27,0.58c13.24,1.8,26.47,3.73,39.68,5.77c0-17.29,0-34.58,0-51.87
		c0.83,0.13,1.66,0.26,2.5,0.39c7.72,18.49,15.43,37.02,23.14,55.6c14.16,2.36,28.31,4.86,42.44,7.49c1.09,0.2,2.17,0.4,3.26,0.61
		c0,0-6.96-8.06-12.03-20.29C967.14,1027.54,967.3,1027.99,967.47,1028.45z M928.99,954.62c0,3.34-1.89,4.69-5.67,4.08
		c-5.22-0.85-10.44-1.67-15.66-2.48c0-12.89,0-25.78,0-38.67c5.22,0.81,10.44,1.63,15.66,2.48c3.78,0.61,5.67,2.59,5.67,5.93
		C928.99,935.51,928.99,945.06,928.99,954.62z"/>
	<path class="st0" d="M575.22,1008.87c21.03-0.49,31.65-9.53,31.65-27.75c0-34.46,0-68.93,0-103.39c0.83-8,4.05-14.36,4.05-14.36
		c-1.35-0.03-2.7-0.05-4.05-0.08c0,0,0,0,0,0c-0.02,0-0.05,0-0.07,0c-0.31-0.01-0.63-0.01-0.94-0.02c0,0,0,0.01,0,0.01
		c-8.12-0.14-16.24-0.16-24.35-0.22c-4.91-0.03-9.81-0.13-14.72-0.13c0,2.35,0,4.69,0,7.04c0,35.19,0,70.37,0,105.56
		c0,3.34-1.91,5-5.73,5.01c-3.21,0.01-6.41,0.02-9.62,0.05c-3.82,0.03-5.73-1.62-5.73-4.96c0-37.53,0-75.07,0-112.6
		c-13.06,0.12-26.11,0.37-39.17,0.73c0,0,0-0.01,0-0.01c-0.28,0.01-0.56,0.02-0.84,0.02c-0.02,0-0.05,0-0.08,0c0,0,0,0,0,0
		c-1.38,0.04-2.77,0.08-4.15,0.12c0,0,3.68,7.32,4.15,16.13c0,33.86,0,67.72,0,101.58c0,18.82,11.22,27.83,33.67,27.53
		c5.2-0.06,10.39-0.05,15.59-0.07c6.1-0.03,12.21-0.1,18.31-0.09C573.92,1008.97,574.53,1008.88,575.22,1008.87z"/>
</g>
</svg>
