<?xml version="1.0" encoding="UTF-8" standalone="no"?>
<svg
   xmlns:dc="http://purl.org/dc/elements/1.1/"
   xmlns:cc="http://creativecommons.org/ns#"
   xmlns:rdf="http://www.w3.org/1999/02/22-rdf-syntax-ns#"
   xmlns:svg="http://www.w3.org/2000/svg"
   xmlns="http://www.w3.org/2000/svg"
   xmlns:sodipodi="http://sodipodi.sourceforge.net/DTD/sodipodi-0.dtd"
   xmlns:inkscape="http://www.inkscape.org/namespaces/inkscape"
   inkscape:version="1.0.1 (3bc2e813f5, 2020-09-07)"
   height="1231.9531"
   width="1090.5267"
   inkscape:export-ydpi="96"
   inkscape:export-xdpi="96"
   inkscape:export-filename="/home/kazerlelutin/Téléchargements/favicon.png"
   sodipodi:docname="logo-arrd.svg"
   xml:space="preserve"
   viewBox="0 0 1090.5267 1231.9532"
   y="0px"
   x="0px"
   id="Calque_1"
   version="1.1"><metadata
   id="metadata133"><rdf:RDF><cc:Work
       rdf:about=""><dc:format>image/svg+xml</dc:format><dc:type
         rdf:resource="http://purl.org/dc/dcmitype/StillImage" /><dc:title></dc:title></cc:Work></rdf:RDF></metadata><defs
   id="defs131" /><sodipodi:namedview
   inkscape:current-layer="Calque_1"
   inkscape:window-maximized="1"
   inkscape:window-y="-8"
   inkscape:window-x="1272"
   inkscape:cy="681.08209"
   inkscape:cx="369.1999"
   inkscape:zoom="0.5545075"
   showgrid="false"
   id="namedview129"
   inkscape:window-height="1009"
   inkscape:window-width="1920"
   inkscape:pageshadow="2"
   inkscape:pageopacity="0"
   guidetolerance="10"
   gridtolerance="10"
   objecttolerance="10"
   borderopacity="1"
   bordercolor="#666666"
   pagecolor="#ffffff"
   inkscape:document-rotation="0"
   fit-margin-top="0"
   fit-margin-left="0"
   fit-margin-right="0"
   fit-margin-bottom="0" />
<style
   id="style2"
   type="text/css">
	.st0{fill:#378F6A;}
	.st1{fill:#1F8D70;}
	.st2{fill:#FFFFFF;}
</style>





























































<g
   transform="matrix(20.621333,0,0,20.621333,-138.522,-28.593369)"
   id="g197"><polygon
     class="st0"
     points="507.8,457.8 504.9,458.7 526.4,478.3 529.3,477.5 "
     id="polygon4"
     transform="matrix(0.08050354,0,0,0.08050354,6.7174123,1.3865917)"
     inkscape:export-xdpi="96"
     inkscape:export-ydpi="96" /><path
     class="st0"
     d="m 47.162382,38.369912 c 0,0 -2.58416,0.90164 -3.38114,3.30065 l 0.86139,1.86769 c 0,0 0.88553,-2.50367 4.25863,-3.59851 z"
     id="path6"
     style="stroke-width:0.0805035"
     inkscape:export-xdpi="96"
     inkscape:export-ydpi="96" /><path
     class="st0"
     d="m 19.686532,50.542052 2.4473,-1.37661 c 0.22541,-3.95273 -2.35875,-5.32128 -2.35875,-5.32128 l -2.76127,0.55547 c 3.09133,2.41511 2.67272,6.14242 2.67272,6.14242 z"
     id="path8"
     style="stroke-width:0.0805035"
     inkscape:export-xdpi="96"
     inkscape:export-ydpi="96" /><path
     class="st1"
     d="m 34.338172,56.901832 2.44731,-1.37661 c 0.22541,-3.95273 -2.35876,-5.32128 -2.35876,-5.32128 l -2.76127,0.55547 c 3.09134,2.41511 2.67272,6.14242 2.67272,6.14242 z"
     id="path10"
     style="stroke-width:0.0805035"
     inkscape:export-xdpi="96"
     inkscape:export-ydpi="96" /><path
     class="st1"
     d="m 28.429212,39.529172 c 0.43472,1.89988 -0.21736,3.67901 -1.44906,4.00103 0.0161,0 0.0322,-0.008 0.0483,-0.008 1.26391,-0.28981 1.94014,-2.08504 1.49737,-4.01712 -0.43471,-1.93209 -1.81938,-3.2604 -3.08329,-2.97059 -0.0161,0 -0.0322,0.008 -0.0483,0.0161 1.24781,-0.24152 2.60027,1.07874 3.03499,2.97863 z"
     id="path12"
     style="stroke-width:0.0805035"
     inkscape:export-xdpi="96"
     inkscape:export-ydpi="96" /><path
     class="st1"
     d="m 27.286062,39.690172 c -0.20126,-0.90164 -0.84529,-1.52151 -1.44101,-1.38465 -0.0564,0.008 -0.10466,0.0322 -0.15296,0.0564 0.53937,0 1.09485,0.57964 1.28001,1.40077 0.18515,0.82113 -0.0564,1.58592 -0.54743,1.81938 0.0564,0 0.10465,-0.008 0.16101,-0.0161 0.58768,-0.13686 0.90164,-0.9741 0.70038,-1.87574 z"
     id="path14"
     style="stroke-width:0.0805035"
     inkscape:export-xdpi="96"
     inkscape:export-ydpi="96" /><polygon
     class="st0"
     points="161.6,615.7 159.4,624.6 190.7,603.4 192.1,598.5 "
     id="polygon16"
     transform="matrix(0.08050354,0,0,0.08050354,6.7174123,1.3865917)"
     inkscape:export-xdpi="96"
     inkscape:export-ydpi="96" /><path
     class="st1"
     d="m 44.771432,14.887032 c -0.26566,0.0403 -0.45887,0.17712 -0.61988,0.47498 -0.28981,0.53131 -0.32202,1.1834 -0.20126,1.44905 l 0.0322,0.0564 c 0.27372,0.48302 0.39447,0.91774 1.68253,1.70667 0.0241,0.0161 0.18516,0.12076 0.31397,0.22541 0.008,0.008 0.0403,0.0161 0.0724,0.0161 0.0403,-0.28981 0.12075,-0.99824 0.0403,-1.47322 l -0.0483,-0.28176 0.18515,-0.0322 c -0.49912,-0.82918 -0.0564,-1.2961 0.33007,-1.52956 -0.42667,-0.30592 -1.15925,-0.70038 -1.78718,-0.61183 z"
     id="path18"
     style="stroke-width:0.0805035"
     inkscape:export-xdpi="96"
     inkscape:export-ydpi="96" /><path
     class="st0"
     d="m 36.133402,50.236132 c -0.45887,-2.02868 -1.58592,-3.7112 -3.01888,-4.7014 0.008,0 0.0161,-0.008 0.0241,-0.008 -0.008,0 -0.0161,0.008 -0.0241,0.008 -0.88554,-0.61183 -1.88379,-0.95799 -2.91424,-0.95799 v 0 c -0.31395,0 -0.62791,0.0322 -0.93383,0.0966 -1.44101,0.30591 -2.63247,1.30415 -3.34895,2.80151 -0.71648,1.48127 -0.88554,3.2765 -0.48302,5.06368 0.74063,3.27649 3.24429,5.6594 5.94116,5.6594 0.31396,0 0.62793,-0.0322 0.93384,-0.0966 1.44102,-0.30592 2.63247,-1.30417 3.34895,-2.80153 0.70843,-1.48127 0.88554,-3.27649 0.47497,-5.06368 z m -2.42316,-3.96882 c 0.35422,0.33007 0.68429,0.70843 0.9741,1.12705 l -0.0322,-0.0241 c -0.71648,0.28177 -0.99825,1.22365 -0.63598,2.10115 0.36227,0.87748 1.23976,1.3605 1.95624,1.07874 l -0.008,-0.17711 c 0.0805,0.37032 0.12881,0.73259 0.161,1.09485 -0.62793,0.76479 -1.56981,0.29786 -1.56981,0.29786 l -0.17712,1.29611 c -0.98213,-0.37837 -1.89987,-1.19951 -2.4795,-2.3346 -0.30592,-0.59573 -0.47497,-1.21561 -0.53132,-1.81133 l 0.0241,0.008 1.61007,0.12076 c 0.008,0.008 -0.77284,-1.59398 0.70843,-2.77738 z m -1.44906,11.64886 c -0.10466,0.0241 -0.20931,0.0403 -0.30592,0.0564 -2.5117,-0.0724 -4.90266,-2.3346 -5.62719,-5.50644 -0.82114,-3.60656 0.82918,-7.01991 3.68706,-7.63174 0.10465,-0.0241 0.20126,-0.0403 0.30591,-0.0564 0.24152,0.008 0.47498,0.0322 0.70843,0.0805 -0.23345,0.0564 -0.45886,0.13685 -0.68428,0.24956 -2.2863,1.1029 -2.95447,4.33914 -1.48126,7.23727 1.36856,2.68881 4.09763,4.12983 6.31148,3.4375 -0.68428,1.07875 -1.68253,1.86768 -2.91423,2.13334 z m -2.80152,-5.76404 c -1.47322,-2.89008 -0.80503,-6.13438 1.48126,-7.23728 0.0483,-0.0241 0.0886,-0.0402 0.13686,-0.0564 0.61988,0.12881 1.22365,0.37837 1.77913,0.74868 -0.11271,0.0322 -0.21736,0.0724 -0.32202,0.12881 -1.07875,0.52327 -1.65032,1.71472 -1.60202,3.05913 l -1.65033,1.04655 1.68253,-0.66012 c 0.0644,0.55546 0.23347,1.1351 0.51523,1.69056 0.2093,0.40252 0.45887,0.77284 0.74063,1.0868 l -1.39272,1.12705 1.64228,-0.86138 c 1.04654,1.03044 2.43121,1.46516 3.5985,1.04654 -0.13684,0.90969 -0.43472,1.74693 -0.86138,2.45536 -2.10114,0.31397 -4.50014,-1.1029 -5.74795,-3.57435 z"
     id="path20"
     style="stroke-width:0.0805035"
     inkscape:export-xdpi="96"
     inkscape:export-ydpi="96" /><path
     class="st1"
     d="m 47.291192,18.622402 c 0.12076,-0.008 0.28981,-0.008 0.43471,-0.008 l 0.0403,-0.0966 c -0.30591,-0.22541 -0.57157,-0.42667 -0.78088,-0.61987 0.11271,0.20126 0.22541,0.44277 0.30591,0.72453 z"
     id="path22"
     style="stroke-width:0.0805035"
     inkscape:export-xdpi="96"
     inkscape:export-ydpi="96" /><polygon
     class="st0"
     points="512.9,456.4 509.4,457.3 531,476.9 534.4,476.4 "
     id="polygon24"
     transform="matrix(0.08050354,0,0,0.08050354,6.7174123,1.3865917)"
     inkscape:export-xdpi="96"
     inkscape:export-ydpi="96" /><path
     class="st1"
     d="m 48.321642,28.773902 0.008,-0.11271 c 0,0 0,0.0161 -0.008,0.0402 0,0.0161 0,0.0403 0,0.0724 z"
     id="path26"
     style="stroke-width:0.0805035"
     inkscape:export-xdpi="96"
     inkscape:export-ydpi="96" /><path
     class="st1"
     d="m 21.369052,39.963892 c 0.1449,0.62792 -0.0403,1.20755 -0.41862,1.38466 0.0403,0 0.0805,0 0.12076,-0.0161 0.45082,-0.10465 0.69233,-0.74063 0.53132,-1.42491 -0.15295,-0.68427 -0.64402,-1.15925 -1.09485,-1.0546 -0.0403,0.008 -0.0805,0.0241 -0.1127,0.0403 0.41056,0 0.83723,0.44277 0.97409,1.0707 z"
     id="path28"
     style="stroke-width:0.0805035"
     inkscape:export-xdpi="96"
     inkscape:export-ydpi="96" /><path
     class="st1"
     d="m 33.831002,38.716082 c 0.24151,1.06264 -0.0724,2.05284 -0.70843,2.35876 0.0724,0 0.13686,-0.008 0.20931,-0.0241 0.76478,-0.1771 1.17534,-1.2639 0.90969,-2.4312 -0.26566,-1.1673 -1.1029,-1.97234 -1.86769,-1.79523 -0.0724,0.0161 -0.13685,0.0403 -0.19321,0.0724 0.69233,0 1.40881,0.75673 1.65033,1.81938 z"
     id="path30"
     style="stroke-width:0.0805035"
     inkscape:export-xdpi="96"
     inkscape:export-ydpi="96" /><path
     class="st0"
     d="m 48.208932,44.447942 c 0.45887,-0.47498 0.90969,-0.958 1.30416,-1.36857 1.67447,0.12076 3.27649,0.17711 3.27649,0.17711 -1.14315,-0.22541 -2.19775,-0.33811 -3.07523,-0.38642 0.58767,-0.62793 0.99824,-1.07069 0.99824,-1.07069 -0.39447,0.30591 -0.80504,0.67623 -1.19145,1.05459 -0.24152,-0.0161 -0.46693,-0.0161 -0.67623,-0.0241 l 1.28806,-1.32831 c 0,0 -0.60378,0.36226 -1.47322,1.32831 -0.88554,-0.008 -1.41686,0.0402 -1.41686,0.0402 0.38641,0.0483 0.81308,0.0886 1.26391,0.12881 -0.25762,0.28981 -0.53133,0.63598 -0.82114,1.03045 l 0.98214,-1.01435 c 0.20931,0.0161 0.42667,0.0322 0.63598,0.0483 -0.46692,0.47498 -0.90969,0.95799 -1.28805,1.38466 -0.8936,-0.008 -1.44102,0.0402 -1.44102,0.0402 0.44276,0.0403 0.87749,0.0724 1.31221,0.11271 -0.58768,0.68428 -0.98215,1.19145 -0.98215,1.19145 0.35422,-0.36227 0.74868,-0.76478 1.14315,-1.17535 2.16555,0.16905 4.04933,0.28981 4.04933,0.28981 -1.48932,-0.33006 -2.87397,-0.43471 -3.88832,-0.45887 z"
     id="path32"
     style="stroke-width:0.0805035"
     inkscape:export-xdpi="96"
     inkscape:export-ydpi="96" /><path
     class="st0"
     d="m 38.347252,52.796152 3.47775,-1.95624 c 0.31396,-5.61109 -3.34894,-7.55123 -3.34894,-7.55123 l -3.91248,0.78893 c 4.38744,3.42946 3.78367,8.71854 3.78367,8.71854 z"
     id="path34"
     style="stroke-width:0.0805035"
     inkscape:export-xdpi="96"
     inkscape:export-ydpi="96" /><polygon
     class="st1"
     points="639.1,520.7 640.6,516 611.4,532.4 609.3,541 "
     id="polygon36"
     transform="matrix(0.08050354,0,0,0.08050354,6.7174123,1.3865917)"
     inkscape:export-xdpi="96"
     inkscape:export-ydpi="96" /><polygon
     class="st1"
     points="434.9,628.4 437,621.4 393.7,645.8 390.5,658.5 "
     id="polygon38"
     transform="matrix(0.08050354,0,0,0.08050354,6.7174123,1.3865917)"
     inkscape:export-xdpi="96"
     inkscape:export-ydpi="96" /><path
     class="st2"
     d="m 43.837582,29.933142 c 0,0 1.51348,3.50191 1.61008,8.17112 0.33006,-0.20931 0.70843,-0.41057 1.119,-0.57963 -0.0564,-2.2863 -0.48303,-4.97512 -1.50542,-8.09061 0,0 -3.55021,-10.57012 -2.68881,-15.35202 0,0 -1.27196,1.40881 0.41056,10.38496 1.69057,8.96809 -6.27927,11.34294 -6.27927,11.34294 0,0 6.23902,-1.50541 7.33386,-5.87676 z"
     id="path40"
     style="stroke-width:0.0805035"
     inkscape:export-xdpi="96"
     inkscape:export-ydpi="96" /><polygon
     class="st2"
     points="378.5,456.4 466,401.4 462.2,390.5 "
     id="polygon42"
     transform="matrix(0.08050354,0,0,0.08050354,6.7174123,1.3865917)"
     inkscape:export-xdpi="96"
     inkscape:export-ydpi="96" /><path
     class="st2"
     d="m 25.297622,35.769652 c 0.14491,-0.0322 0.29786,-0.0483 0.44277,-0.0483 0.55548,0 1.09485,0.21736 1.58593,0.60378 0.70843,-0.0805 1.3927,-0.16906 2.04479,-0.28176 0.0241,-0.0805 0.0483,-0.16102 0.0805,-0.23347 0.45081,-1.1995 1.2317,-1.98039 2.21384,-2.20579 0.18516,-0.0403 0.37836,-0.0644 0.56352,-0.0644 0.82919,0 1.64227,0.38642 2.34266,1.04655 2.62441,-1.119 4.52429,-2.68882 5.6916,-4.71751 -7.62369,0.85334 -14.22498,4.07348 -18.31455,6.54494 0.59572,0.0966 1.2317,0.14491 1.91598,0.14491 0,0 0,0 0,0 0.0724,0 0.15296,0 0.23346,0 0.32202,-0.41057 0.73258,-0.68429 1.1995,-0.78894 z"
     id="path44"
     style="stroke-width:0.0805035"
     inkscape:export-xdpi="96"
     inkscape:export-ydpi="96" /><path
     class="st2"
     d="m 28.026702,37.025502 c 0.38641,-0.0483 0.77283,-0.10465 1.15119,-0.161 0.0403,-0.21736 0.0805,-0.42667 0.13686,-0.62793 -0.57962,0.0966 -1.17535,0.17711 -1.78717,0.24956 0.16905,0.16101 0.3381,0.33812 0.49912,0.53937 z"
     id="path46"
     style="stroke-width:0.0805035"
     inkscape:export-xdpi="96"
     inkscape:export-ydpi="96" /><path
     class="st2"
     d="m 23.953212,36.735692 c -0.0322,0 -0.0643,0 -0.0966,0 -0.78088,0 -1.49737,-0.0643 -2.17359,-0.18515 -0.21736,0.13686 -0.43472,0.26565 -0.64403,0.40251 0.0966,0.0322 0.1932,0.0724 0.28176,0.12881 0.69233,0.1449 1.45711,0.2254 2.31045,0.24151 0.0966,-0.21736 0.20126,-0.41057 0.32202,-0.58768 z"
     id="path48"
     style="stroke-width:0.0805035"
     inkscape:export-xdpi="96"
     inkscape:export-ydpi="96" /><polygon
     class="st2"
     points="394,502.1 473.3,456.1 472.7,445.4 "
     id="polygon50"
     transform="matrix(0.08050354,0,0,0.08050354,6.7174123,1.3865917)"
     inkscape:export-xdpi="96"
     inkscape:export-ydpi="96" /><path
     class="st2"
     d="m 45.689172,48.497262 c -0.88554,0.53132 -1.87573,1.02239 -2.97864,1.45711 0,0.21737 -0.008,0.43473 -0.0241,0.64404 1.35246,-0.51523 2.54392,-1.11095 3.59046,-1.77108 -0.20931,-0.0966 -0.40252,-0.20931 -0.58767,-0.33007 z"
     id="path52"
     style="stroke-width:0.0805035"
     inkscape:export-xdpi="96"
     inkscape:export-ydpi="96" /><path
     class="st2"
     d="m 44.296462,46.629572 -0.24957,-0.58767 c -0.31396,0.75674 -0.67622,1.50542 -1.11899,2.24605 0,0 0.62792,-0.53133 1.36856,-1.65838 z"
     id="path54"
     style="stroke-width:0.0805035"
     inkscape:export-xdpi="96"
     inkscape:export-ydpi="96" /><path
     class="st2"
     d="m 42.782992,41.887922 c 0.0322,-0.24151 0.0805,-0.49107 0.16101,-0.73258 l -3.04303,2.18165 c 0.0322,0.0322 0.0724,0.0644 0.10465,0.0966 z"
     id="path56"
     style="stroke-width:0.0805035"
     inkscape:export-xdpi="96"
     inkscape:export-ydpi="96" /><polygon
     class="st2"
     points="386.4,482.4 471.3,429.8 469.8,416.8 "
     id="polygon58"
     transform="matrix(0.08050354,0,0,0.08050354,6.7174123,1.3865917)"
     inkscape:export-xdpi="96"
     inkscape:export-ydpi="96" /><path
     class="st2"
     d="m 13.254302,28.154022 c 1.20755,-0.11271 2.43925,1.2317 2.4151,3.05108 -0.0161,1.1351 0.61987,3.34894 2.86592,4.78191 0.0724,-0.25761 0.12076,-0.45887 0.16102,-0.59573 -0.32202,-0.21736 -0.61988,-0.46691 -0.88555,-0.74063 -1.23976,-1.25585 -1.55371,-2.75322 -1.54567,-3.4375 0.0161,-1.10289 -0.37836,-2.14139 -1.07069,-2.84982 -0.51522,-0.52328 -1.1512,-0.80504 -1.78718,-0.80504 -0.0645,0 -0.13685,0 -0.20126,0.008 -0.71648,0.0644 -1.36856,0.45886 -1.77912,1.07874 -0.54743,0.81308 -0.65209,1.91598 -0.29787,3.09939 0.51523,1.72277 1.73083,1.90793 2.22995,1.90793 0.0483,0 0.0886,0 0.12881,0 l 0.11269,-0.008 0.0564,0.0966 c 0.98214,1.65032 0.20931,3.01084 -0.35422,4.00908 -0.0724,0.12075 -0.1288,0.23346 -0.18515,0.33811 -0.60378,1.12705 -0.66818,2.27021 -0.66818,2.3185 -0.0645,1.0707 0.1288,2.11725 0.47497,3.10744 0.10465,-0.0322 0.21736,-0.0644 0.33007,-0.0805 l 0.0241,-0.008 c 0.008,0 0.008,0 0.0161,0 l -0.008,-0.0161 0.22541,-0.0322 c -0.34616,-0.94993 -0.53132,-1.94013 -0.46691,-2.93837 0,0 0.0564,-1.0546 0.59572,-2.077 0.54743,-1.02239 2.00453,-3.00278 0.22541,-5.37763 0,0 -1.56982,0.57157 -2.16555,-1.40882 -0.59572,-1.98038 0.34616,-3.30869 1.55372,-3.42139 z"
     id="path60"
     style="stroke-width:0.0805035"
     inkscape:export-xdpi="96"
     inkscape:export-ydpi="96" /><path
     class="st2"
     d="m 46.478112,48.907832 c -1.09486,0.70038 -2.35876,1.34441 -3.80782,1.88378 -0.13686,1.38466 -0.58767,2.66467 -1.30416,3.68707 2.97058,-1.15926 5.6916,-2.93034 8.0101,-5.24884 0.0483,-0.0483 0.0966,-0.0966 0.14491,-0.15295 -0.43472,0.0966 -0.86139,0.15295 -1.28806,0.15295 -0.62792,0 -1.22366,-0.1127 -1.75497,-0.32201 z"
     id="path62"
     style="stroke-width:0.0805035"
     inkscape:export-xdpi="96"
     inkscape:export-ydpi="96" /><path
     class="st2"
     d="m 42.203362,48.448962 c -0.60377,-3.60656 -3.23624,-6.25512 -6.06996,-6.25512 -0.0322,0 -0.0724,0 -0.10465,0 h -0.0483 l -6.23903,0.80503 v 0.008 c 0.21736,-0.0241 0.43472,-0.0403 0.65208,-0.0403 v 0 c 3.44555,0 6.58519,3.19599 7.29362,7.42243 0.37837,2.22994 0.0403,4.44378 -0.94994,6.23097 -0.60378,1.08679 -1.40076,1.93208 -2.3346,2.50366 v 0.008 l 4.90266,-3.25234 c 2.1897,-1.2156 3.43751,-4.21033 2.89813,-7.43047 z m -7.63978,-4.37135 3.91248,-0.78893 c 0,0 3.6629,1.94014 3.34894,7.55123 l -3.47775,1.95624 c 0,0 0.60377,-5.28908 -3.78367,-8.71854 z m 7.16482,7.8974 -3.57436,2.41511 0.25761,-1.02239 3.4858,-1.96429 z"
     id="path64"
     style="stroke-width:0.0805035"
     inkscape:export-xdpi="96"
     inkscape:export-ydpi="96" /><path
     class="st2"
     d="m 32.470492,52.224582 -1.64228,0.86138 1.39272,-1.12705 c -0.28176,-0.32201 -0.53133,-0.68428 -0.74063,-1.0868 -0.28176,-0.55546 -0.45083,-1.12704 -0.51523,-1.69056 l -1.68253,0.66012 1.65033,-1.04655 c -0.0483,-1.34441 0.51522,-2.54391 1.60202,-3.05913 0.10466,-0.0483 0.20931,-0.0886 0.32202,-0.12881 -0.56353,-0.36226 -1.15925,-0.61987 -1.77913,-0.74868 -0.0483,0.0161 -0.0886,0.0402 -0.13686,0.0564 -2.29435,1.1029 -2.95448,4.33915 -1.48126,7.23728 1.25585,2.4634 3.64681,3.88027 5.74795,3.5663 0.43471,-0.70843 0.73258,-1.54567 0.86138,-2.45536 -1.15924,0.42667 -2.54391,-0.008 -3.5985,-1.03849 z"
     id="path66"
     style="stroke-width:0.0805035"
     inkscape:export-xdpi="96"
     inkscape:export-ydpi="96" /><path
     class="st2"
     d="m 53.457772,41.694722 c -0.58769,-0.8775 -1.65033,-1.38467 -2.91424,-1.38467 -1.0707,0 -2.2058,0.36227 -3.19599,1.02239 -1.09484,0.73259 -1.90793,1.73888 -2.27825,2.84178 -0.37031,1.0868 -0.28176,2.1253 0.26567,2.93838 0.58767,0.87749 1.65032,1.38466 2.91422,1.38466 1.0707,0 2.2058,-0.36226 3.19599,-1.0224 2.238,-1.48931 3.14769,-4.08152 2.0126,-5.78014 z m -5.4018,2.91422 c -0.39446,0.41057 -0.78893,0.81308 -1.14315,1.17535 0,0 0.38642,-0.50717 0.98215,-1.19145 -0.43472,-0.0322 -0.86944,-0.0724 -1.31221,-0.11271 0,0 0.54742,-0.0483 1.44102,-0.0402 0.37031,-0.42667 0.81308,-0.90968 1.28805,-1.38466 -0.21736,-0.0161 -0.42667,-0.0322 -0.63598,-0.0483 l -0.98214,1.01435 c 0.28981,-0.39447 0.56352,-0.74064 0.82114,-1.03045 -0.45083,-0.0403 -0.8775,-0.0805 -1.26391,-0.12881 0,0 0.53132,-0.0483 1.41686,-0.0402 0.87749,-0.96605 1.47322,-1.32831 1.47322,-1.32831 l -1.28807,1.32831 c 0.20931,0.008 0.43473,0.008 0.67624,0.0241 0.39447,-0.37836 0.79698,-0.74868 1.19145,-1.05459 0,0 -0.41057,0.44276 -0.99824,1.07069 0.87748,0.0483 1.93208,0.16101 3.07523,0.38642 0,0 -1.59396,-0.0564 -3.27649,-0.17711 -0.39447,0.41862 -0.84529,0.89359 -1.30416,1.36857 1.0063,0.0241 2.399,0.12075 3.89638,0.44277 -0.008,0.008 -1.88379,-0.10466 -4.05739,-0.27372 z"
     id="path68"
     style="stroke-width:0.0805035"
     inkscape:export-xdpi="96"
     inkscape:export-ydpi="96" /><path
     class="st2"
     d="m 37.308752,50.453502 c -0.69233,-4.10569 -3.68706,-7.10846 -6.91525,-7.10846 -0.27372,0 -0.53938,0.0241 -0.81308,0.0644 -3.51801,0.56352 -5.77211,4.6209 -5.02342,9.07274 0.69232,4.10568 3.68706,7.10847 6.91524,7.10847 0.27371,0 0.53938,-0.0241 0.81309,-0.0644 3.51801,-0.56353 5.77211,-4.62896 5.02342,-9.07275 z m -5.00732,7.63979 c -0.30591,0.0644 -0.61988,0.0966 -0.93384,0.0966 -2.69687,0 -5.20053,-2.38291 -5.94116,-5.6594 -0.40252,-1.78718 -0.23346,-3.58241 0.48302,-5.06368 0.72453,-1.49736 1.91599,-2.48755 3.34895,-2.80151 0.30591,-0.0644 0.61988,-0.0966 0.93384,-0.0966 v 0 c 1.03045,0 2.02869,0.34616 2.91423,0.95799 0.008,0 0.0161,-0.008 0.0241,-0.008 -0.008,0 -0.0161,0.008 -0.0241,0.008 1.43296,0.9902 2.56001,2.67272 3.01888,4.7014 0.40252,1.78719 0.23346,3.58241 -0.48303,5.06368 -0.70843,1.50541 -1.89987,2.49561 -3.34089,2.80153 z"
     id="path70"
     style="stroke-width:0.0805035"
     inkscape:export-xdpi="96"
     inkscape:export-ydpi="96" /><path
     class="st2"
     d="m 35.843582,38.386022 c 0.28982,1.27196 0.20126,2.50366 -0.16905,3.4536 l 0.25762,-0.0322 0.10465,-0.0161 h 0.0644 c 0.0161,0 0.0241,0 0.0403,0 0.0564,0 0.11269,0 0.16905,0.008 0.29786,-1.03045 0.33007,-2.2702 0.0403,-3.55826 -0.0161,-0.0886 -0.0403,-0.16906 -0.0645,-0.25761 -0.008,-0.0322 -0.0161,-0.0564 -0.0241,-0.0886 -0.0161,-0.0564 -0.0322,-0.11271 -0.0483,-0.16907 -0.008,-0.0322 -0.0242,-0.0644 -0.0322,-0.0966 -0.0161,-0.0483 -0.0322,-0.0966 -0.0483,-0.1449 -0.008,-0.0322 -0.0241,-0.0724 -0.0322,-0.10465 -0.0161,-0.0483 -0.0322,-0.0886 -0.0483,-0.13686 -0.0161,-0.0322 -0.0241,-0.0724 -0.0403,-0.10466 -0.0161,-0.0483 -0.0322,-0.0886 -0.0483,-0.12881 -0.0161,-0.0322 -0.0241,-0.0724 -0.0402,-0.10465 -0.0161,-0.0402 -0.0403,-0.0886 -0.0564,-0.1288 -0.0161,-0.0322 -0.0322,-0.0644 -0.0483,-0.0966 -0.0161,-0.0403 -0.0403,-0.0805 -0.0564,-0.12881 -0.0161,-0.0322 -0.0322,-0.0644 -0.0483,-0.0966 -0.0242,-0.0403 -0.0403,-0.0805 -0.0645,-0.1288 -0.0161,-0.0322 -0.0322,-0.0564 -0.0483,-0.0886 -0.0241,-0.0483 -0.0483,-0.0886 -0.0724,-0.1288 -0.0161,-0.0241 -0.0322,-0.0483 -0.0403,-0.0724 -0.0403,-0.0644 -0.0805,-0.12881 -0.1127,-0.19321 -0.008,-0.008 -0.0161,-0.0242 -0.0241,-0.0322 -0.0322,-0.0564 -0.0724,-0.1127 -0.10465,-0.161 -0.0161,-0.0241 -0.0322,-0.0483 -0.0483,-0.0724 -0.0241,-0.0402 -0.0564,-0.0805 -0.0805,-0.11271 -0.0161,-0.0241 -0.0403,-0.0483 -0.0564,-0.0724 -0.0241,-0.0322 -0.0483,-0.0644 -0.0805,-0.10465 -0.0241,-0.0241 -0.0402,-0.0483 -0.0643,-0.0724 -0.0241,-0.0322 -0.0483,-0.0644 -0.0805,-0.0966 -0.0241,-0.0241 -0.0403,-0.0483 -0.0643,-0.0724 -0.0241,-0.0322 -0.0564,-0.0564 -0.0805,-0.0886 -0.0241,-0.0241 -0.0483,-0.0483 -0.0643,-0.0724 -0.0241,-0.0241 -0.0564,-0.0564 -0.0805,-0.0805 -0.0241,-0.0241 -0.0483,-0.0483 -0.0644,-0.0644 -0.0241,-0.0241 -0.0564,-0.0564 -0.0886,-0.0805 -0.0241,-0.0241 -0.0483,-0.0402 -0.0644,-0.0644 -0.0322,-0.0241 -0.0564,-0.0483 -0.0886,-0.0724 -0.0242,-0.0161 -0.0403,-0.0403 -0.0644,-0.0564 -0.0322,-0.0241 -0.0644,-0.0483 -0.10466,-0.0805 -0.0161,-0.0161 -0.0403,-0.0322 -0.0564,-0.0403 -0.0564,-0.0402 -0.10466,-0.0724 -0.16101,-0.11271 -0.008,-0.008 -0.0241,-0.0161 -0.0322,-0.0161 -0.0403,-0.0241 -0.0886,-0.0564 -0.12881,-0.0805 -0.0241,-0.0161 -0.0403,-0.0241 -0.0643,-0.0322 -0.0322,-0.0161 -0.0724,-0.0403 -0.10465,-0.0564 -0.0242,-0.008 -0.0483,-0.0241 -0.0724,-0.0322 -0.0322,-0.0161 -0.0645,-0.0322 -0.0966,-0.0483 -0.0241,-0.008 -0.0483,-0.0241 -0.0724,-0.0322 -0.0322,-0.0161 -0.0645,-0.0242 -0.0966,-0.0402 -0.0241,-0.008 -0.0483,-0.0161 -0.0724,-0.0241 -0.0322,-0.008 -0.0644,-0.0241 -0.0966,-0.0322 -0.0241,-0.008 -0.0483,-0.0161 -0.0724,-0.0241 -0.0322,-0.008 -0.0644,-0.0161 -0.0966,-0.0241 -0.0241,-0.008 -0.0483,-0.008 -0.0724,-0.0161 -0.0322,-0.008 -0.0644,-0.0161 -0.0966,-0.0161 -0.0241,-0.008 -0.0483,-0.008 -0.0724,-0.0161 -0.0322,-0.008 -0.0724,-0.008 -0.10465,-0.008 -0.0242,0 -0.0483,-0.008 -0.0724,-0.008 -0.0403,0 -0.0805,0 -0.11271,-0.008 -0.0161,0 -0.0403,0 -0.0564,0 -0.008,0 -0.0161,0 -0.0241,0 -0.0724,0 -0.1449,0.008 -0.20931,0.008 -0.0241,0 -0.0403,0.008 -0.0643,0.008 -0.0805,0.008 -0.15295,0.0241 -0.23346,0.0403 -1.89988,0.43472 -2.91423,3.13158 -2.2541,6.02971 0.0161,0.0886 0.0403,0.16905 0.0643,0.25762 0.008,0.0322 0.0161,0.0564 0.0241,0.0805 0.0161,0.0564 0.0322,0.1127 0.0483,0.16905 0.008,0.0322 0.0161,0.0644 0.0322,0.0966 0.0161,0.0483 0.0322,0.0966 0.0483,0.15296 0.008,0.0322 0.0241,0.0644 0.0322,0.10465 0.0161,0.0483 0.0322,0.0966 0.0483,0.13685 0.0161,0.0322 0.0241,0.0644 0.0403,0.10466 0.0161,0.0483 0.0322,0.0886 0.0564,0.13686 0.0161,0.0322 0.0242,0.0645 0.0403,0.10465 0.0161,0.0403 0.0403,0.0886 0.0564,0.12881 0.0161,0.0322 0.0322,0.0644 0.0403,0.0966 0.0161,0.0402 0.0403,0.0886 0.0564,0.12881 0.0161,0.0322 0.0322,0.0644 0.0483,0.0966 0.0241,0.0402 0.0403,0.0886 0.0643,0.1288 0.0161,0.0322 0.0322,0.0564 0.0483,0.0886 0.0241,0.0483 0.0483,0.0886 0.0724,0.13686 0.0161,0.0242 0.0241,0.0483 0.0403,0.0724 0.0403,0.0645 0.0805,0.12881 0.11271,0.19322 0.008,0.008 0.0161,0.0241 0.0241,0.0322 0.0322,0.0564 0.0724,0.1127 0.11271,0.16101 0.0161,0.0241 0.0322,0.0483 0.0483,0.0724 0.008,0.008 0.008,0.0161 0.0161,0.0241 l 4.91877,-0.63598 c 0.36227,-0.94994 0.45082,-2.1736 0.16101,-3.44555 -0.56353,-2.4634 -2.31045,-4.17814 -3.92857,-3.86417 0.0241,-0.008 0.0403,-0.0161 0.0645,-0.0161 1.61812,-0.38642 3.41335,1.33636 3.97687,3.84002 z m -3.47775,-1.55372 c 0.76479,-0.17711 1.60203,0.62793 1.86768,1.79523 0.26567,1.1673 -0.1449,2.2541 -0.90968,2.43121 -0.0724,0.0161 -0.13686,0.0241 -0.20931,0.0241 0.63598,-0.29786 0.94994,-1.29611 0.70843,-2.35876 -0.24152,-1.06265 -0.958,-1.81938 -1.65838,-1.81938 0.0644,-0.0322 0.12881,-0.0644 0.20126,-0.0724 z"
     id="path72"
     style="stroke-width:0.0805035"
     inkscape:export-xdpi="96"
     inkscape:export-ydpi="96" /><path
     class="st2"
     d="m 18.800992,40.599862 c 0.0241,0.10466 0.0483,0.20126 0.0805,0.29786 0.008,0.0322 0.0242,0.0645 0.0322,0.0966 0.0241,0.0644 0.0403,0.1288 0.0644,0.19321 0.0161,0.0402 0.0322,0.0724 0.0403,0.11271 0.0242,0.0564 0.0403,0.1127 0.0643,0.161 0.0161,0.0403 0.0322,0.0724 0.0483,0.11271 0.0241,0.0483 0.0483,0.0966 0.0724,0.1449 0.0161,0.0403 0.0403,0.0724 0.0564,0.10465 0.0241,0.0483 0.0483,0.0886 0.0805,0.13686 0.0241,0.0322 0.0403,0.0643 0.0644,0.10466 0.0322,0.0403 0.0564,0.0886 0.0886,0.12881 0.0241,0.0322 0.0483,0.0644 0.0645,0.0886 0.0322,0.0403 0.0643,0.0805 0.0966,0.12076 0.0242,0.0241 0.0483,0.0564 0.0724,0.0805 0.0322,0.0403 0.0724,0.0724 0.10466,0.1127 0.0241,0.0241 0.0483,0.0483 0.0724,0.0724 0.0403,0.0403 0.0805,0.0724 0.12075,0.10466 0.0242,0.0161 0.0403,0.0322 0.0645,0.0564 0.0643,0.0483 0.12075,0.0966 0.18516,0.13685 0,0 0.008,0.008 0.008,0.008 0.0564,0.0403 0.12076,0.0724 0.18516,0.10465 0.0241,0.008 0.0483,0.0161 0.0644,0.0322 0.0403,0.0161 0.0886,0.0402 0.12881,0.0564 0.0241,0.008 0.0564,0.0161 0.0805,0.0241 0.0403,0.0161 0.0805,0.0241 0.12075,0.0322 0.0322,0.008 0.0564,0.008 0.0886,0.0161 0.0403,0.008 0.0805,0.0161 0.12074,0.0161 0.0322,0 0.0564,0.008 0.0886,0.008 0.0403,0 0.0886,0 0.12881,0 0.0161,0 0.0403,0 0.0564,0 0.0645,-0.008 0.12881,-0.0161 0.18516,-0.0241 1.119,-0.25761 1.71473,-1.84353 1.32831,-3.54216 -0.0242,-0.10465 -0.0483,-0.20126 -0.0805,-0.29786 -0.008,-0.0322 -0.0242,-0.0644 -0.0322,-0.0966 -0.0241,-0.0644 -0.0403,-0.12881 -0.0643,-0.19321 -0.0161,-0.0403 -0.0322,-0.0724 -0.0403,-0.11271 -0.0241,-0.0564 -0.0403,-0.1127 -0.0644,-0.161 -0.0161,-0.0403 -0.0322,-0.0724 -0.0483,-0.1127 -0.0241,-0.0483 -0.0483,-0.0966 -0.0724,-0.15297 -0.0161,-0.0322 -0.0403,-0.0724 -0.0564,-0.10465 -0.0241,-0.0483 -0.0564,-0.0886 -0.0805,-0.13686 -0.0241,-0.0322 -0.0403,-0.0644 -0.0643,-0.0966 -0.0322,-0.0402 -0.0564,-0.0886 -0.0886,-0.1288 -0.0241,-0.0322 -0.0483,-0.0645 -0.0643,-0.0886 -0.0322,-0.0403 -0.0645,-0.0805 -0.0966,-0.12076 -0.0242,-0.0241 -0.0483,-0.0564 -0.0724,-0.0805 -0.0322,-0.0403 -0.0724,-0.0724 -0.10466,-0.11271 -0.0241,-0.0241 -0.0483,-0.0483 -0.0724,-0.0724 -0.0403,-0.0402 -0.0805,-0.0724 -0.12074,-0.10465 -0.0161,-0.0161 -0.0403,-0.0322 -0.0564,-0.0483 -0.0644,-0.0483 -0.12076,-0.0966 -0.18517,-0.13686 0,0 -0.008,0 -0.008,-0.008 -0.0564,-0.0402 -0.12076,-0.0724 -0.18516,-0.10466 -0.0241,-0.008 -0.0403,-0.0161 -0.0643,-0.0322 -0.0403,-0.0241 -0.0886,-0.0403 -0.12881,-0.0564 -0.0242,-0.008 -0.0483,-0.0161 -0.0805,-0.0241 -0.0242,-0.008 -0.0403,-0.0161 -0.0645,-0.0161 -0.21736,0.13684 -0.42667,0.28176 -0.63597,0.4186 0.96603,-0.21735 2.01258,0.797 2.34265,2.27021 0.33811,1.47321 -0.17712,2.84178 -1.14315,3.05913 -0.0161,0 -0.0241,0.008 -0.0403,0.008 0.94189,-0.24955 1.43296,-1.60202 1.1029,-3.05108 -0.32202,-1.43296 -1.33636,-2.43121 -2.27826,-2.27825 -0.1449,0.0966 -0.28176,0.1932 -0.41862,0.28177 -1.42491,0.95798 -2.22189,1.61006 -2.2541,1.64227 0,0 0.41862,-0.33007 1.08681,-0.81309 0.0724,-0.0564 0.15295,-0.1127 0.23345,-0.16906 -0.20126,0.59572 -0.23345,1.35246 -0.0564,2.13334 z m 1.70667,-1.74693 c 0.45083,-0.10465 0.9419,0.37033 1.09485,1.0546 0.15296,0.68428 -0.0805,1.32831 -0.53132,1.42491 -0.0403,0.008 -0.0805,0.0161 -0.12076,0.0161 0.37032,-0.17711 0.56352,-0.76479 0.41862,-1.38466 -0.14491,-0.62793 -0.56353,-1.0707 -0.97409,-1.0707 0.0403,-0.0161 0.0724,-0.0322 0.1127,-0.0403 z"
     id="path74"
     style="stroke-width:0.0805035"
     inkscape:export-xdpi="96"
     inkscape:export-ydpi="96" /><path
     class="st2"
     d="m 58.457032,38.064002 c 0.36226,-1.75498 0.54742,-3.55825 0.54742,-5.35349 0,-4.83825 -1.33636,-9.56381 -3.85611,-13.66949 0.008,-3.96883 -1.09485,-9.4913703 -6.08608,-14.3296303 l 0.99826,-0.20126 -0.64404,-3.12354 -41.0487497,8.42067 0.64402,3.1235303 1.9159997,-0.39446 c 0.66817,0.62793 1.55371,1.53762 2.48755,2.69687 -4.3230397,4.80606 -6.6978897,10.98874 -6.6978897,17.47731 0,5.74796 1.82743,11.19805 5.2890797,15.76261 3.29259,4.34718 7.94569,7.61562 13.13013,9.21765 1.65837,2.18969 3.95272,3.4375 6.32757,3.4375 0.35422,0 0.70843,-0.0242 1.06265,-0.0805 0.15295,-0.0241 0.30592,-0.0564 0.46692,-0.0966 0.22541,-0.0483 0.44277,-0.1127 0.66013,-0.19321 l 1.35246,-0.71648 2.55197,-1.61008 c 6.00556,-1.09484 11.45565,-4.28278 15.38422,-8.99224 0.16906,-0.0643 0.32201,-0.14491 0.46692,-0.21736 l 0.0724,-0.0402 0.30591,-0.17712 3.28455,-2.18164 c 1.85158,-1.06265 2.85787,-3.55021 2.4312,-6.06192 -0.15295,-0.97409 -0.51522,-1.89989 -1.04655,-2.69687 z m -1.78718,8.09866 -3.2926,2.18165 -0.28176,0.16905 -0.0322,0.0161 c -0.17711,0.0886 -0.35421,0.17711 -0.54743,0.24152 -0.008,0 -0.0241,0.008 -0.0322,0.008 -3.76757,4.59675 -9.113,7.84909 -15.21517,8.91978 l -2.65661,1.76303 -0.45083,0.24151 c -0.42667,0.21737 -0.87748,0.37837 -1.34441,0.49107 -0.15295,0.0322 -0.28176,0.0644 -0.41862,0.0805 -0.31396,0.0483 -0.62791,0.0724 -0.93383,0.0724 -2.26215,0 -4.3955,-1.28807 -5.86066,-3.32481 -10.4735,-3.1235 -18.1132897,-12.82418 -18.1132897,-24.31204 0,-6.75424 2.6405097,-12.88861 6.9393997,-17.43706 -1.2317,-1.61812 -2.43925,-2.82567 -3.26844,-3.58241 l -1.5456697,0.32201 -0.33006,-1.61006 39.5352897,-8.0986603 0.33007,1.61007 -1.73084,0.35422 c 6.40004,5.43399 7.30167,12.0030803 6.86695,16.6722803 -0.0564,0.60377 -0.13685,1.19146 -0.2254,1.75498 0.0724,-0.38642 0.31397,-1.80328 0.31397,-3.42945 2.43925,3.89637 3.85611,8.50922 3.85611,13.45213 0,1.89989 -0.20931,3.75148 -0.60377,5.5306 0.55546,0.73258 0.94994,1.64227 1.11899,2.65661 0.37032,2.19775 -0.48301,4.3633 -2.07699,5.25689 z"
     id="path76"
     style="stroke-width:0.0805035"
     inkscape:export-xdpi="96"
     inkscape:export-ydpi="96" /><path
     class="st2"
     d="m 51.477382,30.432272 -0.0322,0.0564 -0.0645,-0.0161 c -0.29786,-0.0724 -0.60377,-0.13685 -0.90164,-0.20126 0.91774,0.68428 2.02869,1.36051 3.07524,1.65837 l 0.46692,0.12881 0.45887,2.56001 -0.50717,0.37032 c 0.008,0.33811 0.008,0.86139 -0.0403,1.50541 l 0.33811,-0.0402 0.0643,-0.008 h 0.0403 c 0.008,0 0.0161,0 0.0241,0 0.50717,0 1.00629,0.12076 1.46517,0.33007 0.23346,-1.33636 0.35421,-2.69687 0.35421,-4.07349 0,-3.47775 -0.75673,-6.8428 -2.18969,-9.90193 -0.74869,4.41965 -2.52782,7.59954 -2.55197,7.63174 z"
     id="path78"
     style="stroke-width:0.0805035"
     inkscape:export-xdpi="96"
     inkscape:export-ydpi="96" /><path
     class="st2"
     d="m 54.278892,34.545992 -0.41861,-2.34265 -0.35422,-0.0966 c -2.13334,-0.59573 -4.46794,-2.72907 -5.12807,-3.3731 l -0.0322,-0.0322 -0.0161,-0.0483 -0.008,0.11271 c 0,-0.0322 0,-0.0564 0,-0.0644 0,-0.0322 0.008,-0.0402 0.008,-0.0402 -0.37836,-1.24781 -0.49912,-1.60203 -0.70843,-2.1736 -0.15295,-0.41862 -0.33811,-0.94189 -0.70843,-2.05284 -0.50717,-1.52956 -0.54742,-2.71296 -0.49912,-3.44555 l 0.0161,-0.16101 0.16101,-0.008 c 0.61987,-0.0241 1.44906,-0.0564 1.86768,-0.0643 0.34617,-0.008 0.64403,-0.15296 0.83724,-0.41057 0.35422,-0.46691 0.20931,-1.11094 0.16101,-1.2961 l -0.0724,-0.25762 -0.0564,-0.0241 -0.008,-0.10465 c -0.0241,-0.21735 -0.0643,-0.44277 -0.13686,-0.66013 l -0.0403,-0.12881 0.10466,-0.0805 c 0.16905,-0.12075 0.74869,-0.57962 1.08679,-1.32025 l 0.0403,-0.0886 0.0886,-0.0161 0.12881,-0.27372 c 0.0403,-0.0805 0.40252,-0.86138 0.53938,-2.32655 0.0483,-0.52327 -0.0483,-0.90969 -0.29787,-1.19145 -0.14491,-0.16101 -0.42667,-0.36227 -0.89359,-0.36227 -0.34616,0 -0.72453,0.10466 -1.05459,0.20126 -0.14491,0.0403 -0.27372,0.0724 -0.36227,0.10466 l -0.0483,0.0161 -0.0483,-0.0161 c -0.28176,-0.0724 -0.68427,-0.73258 -0.85334,-1.40076 -0.1449,-0.57157 -0.60377,-0.90164 -1.25584,-0.90164 -0.25762,0 -0.50718,0.0564 -0.66819,0.0966 l -0.0403,0.008 -0.0402,-0.008 c -0.28981,-0.0644 -0.58767,-0.0966 -0.86943,-0.0966 -1.0385,0 -1.78719,0.41862 -2.22996,0.76478 l -0.0724,0.0564 -0.0886,-0.0241 c -0.37031,-0.0966 -0.71648,-0.14491 -1.01435,-0.14491 -0.74867,0 -1.07874,0.28982 -1.19144,0.41057 l -0.18516,0.20931 0.0483,0.28177 c 0.20125,1.17535 0.44276,1.80328 0.76477,2.03674 l 0.12076,0.0805 -0.0564,0.13686 c -0.62793,1.57786 -0.60377,4.41159 0.0805,9.18545 0.57159,3.95272 0.0403,5.7077 -0.0241,5.89286 v 0.008 l -0.008,0.008 c -1.119,2.43926 -3.16379,4.29889 -6.12632,5.57085 0.1449,0.14491 0.28981,0.30591 0.41862,0.48301 2.78543,-1.2317 5.01537,-3.09133 6.26318,-5.8365 0,0 0.70843,-1.77912 0.0644,-6.21487 -0.64403,-4.43575 -0.86139,-8.42872 0.33811,-9.61212 l -0.70843,-0.18516 c 0,0 -0.27371,-0.0886 -0.54742,-1.66642 0,0 0.43471,-0.49107 2.00453,0.0402 0,0 1.07875,-1.30415 3.08329,-0.77283 0,0 1.1673,-0.45887 1.36856,0.32202 0.10466,0.40251 0.31397,0.92579 0.61183,1.3122 -1.28001,0.15295 -1.32026,1.27196 -1.32026,1.27196 0.49912,-0.90164 1.38466,-0.88554 1.84353,-0.80504 0.15295,0.0724 0.31396,0.0966 0.48302,0.0564 0.82114,-0.18516 2.05284,-0.78893 1.91598,0.60377 -0.13686,1.40076 -0.48302,2.12529 -0.48302,2.12529 0,0 -0.0483,0.008 -0.13686,0.0161 -0.2415,0.93385 -1.05459,1.47322 -1.05459,1.47322 0.12075,-0.37032 0.1288,-0.9902 0.12075,-1.40882 -0.32201,0 -0.68427,-0.0161 -1.05459,-0.0643 -0.24151,0.92579 -1.0546,1.46516 -1.0546,1.46516 0.15296,-0.47497 0.12881,-1.36051 0.11271,-1.71472 -0.008,-0.008 -0.0241,-0.008 -0.0322,-0.0161 0,0 -2.1736,-1.88379 -2.97864,-0.46693 -0.80503,1.40881 -0.20126,2.59222 1.45712,3.53411 0,0 0.161,0.0886 0.38641,0.24956 0,0 0.13686,0.12881 0.36227,0.0645 0.0564,-0.37838 0.16101,-1.20756 0.0645,-1.67448 0,0 0.70843,0.58767 0.87749,1.50541 0.21736,-0.0161 0.45886,-0.0241 0.69233,-0.008 0.16905,-0.38641 0.42667,-1.03044 0.45887,-1.4571 0,0 0.50717,0.74867 0.43471,1.65836 0.0483,0.0241 0.0966,0.17712 0.14491,0.20126 0,0 0.25761,0.94189 -0.44277,0.95799 -0.70038,0.0161 -2.51975,0.0886 -2.51975,0.0886 0,0 -0.46693,1.69863 0.42667,4.3633 0.34615,1.03849 0.53936,1.57786 0.68427,1.98038 l -0.008,0.008 c 0,0.008 0.0564,0.12881 0.13686,0.33811 0.1449,0.41057 0.28176,0.79699 0.55547,1.70668 0.53132,1.88378 1.14315,4.91876 0.9902,8.51727 0.1771,0.0241 0.34616,0.0564 0.50717,0.11271 0,0 0,-0.008 0,-0.008 l -0.0403,-0.0161 c 0.0886,-1.12705 0.0805,-2.18163 0.0242,-3.12353 -0.008,-0.0886 -0.0242,-0.18515 -0.0403,-0.34617 l 0.0161,0.008 c 0,-0.0402 -0.008,-0.0805 -0.008,-0.12075 0,-0.0242 0,-0.0483 -0.008,-0.0645 -0.0161,-0.20126 -0.0322,-0.39447 -0.0564,-0.58768 l -0.0322,-0.0241 c -0.0322,-0.28176 -0.0643,-0.74063 -0.10466,-1.00629 l -0.0403,-0.22541 c 1.44906,1.73887 3.88027,1.44906 3.88027,1.44906 -2.73713,-0.76479 -3.84808,-2.4473 -4.2667,-3.53411 l 0.29787,0.27372 c 0,0.008 0,0.0161 0.008,0.0161 1.07069,0.91774 2.81761,2.23801 4.49209,2.70493 l 0.28981,1.61006 -0.45887,0.33007 c 0,0 0.21736,2.27825 -0.65207,5.17638 l 0.49106,0.41862 c 0.75674,-2.3829 0.79699,-4.40355 0.77283,-5.20858 v -0.0966 l 0.0805,-0.0564 z m -8.0584,-17.51757 -0.18515,0.0322 0.0483,0.28176 c 0.0886,0.46692 0,1.18341 -0.0403,1.47322 -0.0322,0 -0.0644,-0.008 -0.0724,-0.0161 -0.12881,-0.10466 -0.28982,-0.21737 -0.31397,-0.22542 -1.28805,-0.78893 -1.41686,-1.22365 -1.68253,-1.70667 l -0.0322,-0.0564 c -0.12075,-0.26565 -0.0805,-0.92578 0.20127,-1.44905 0.16905,-0.30591 0.35421,-0.44277 0.61986,-0.47498 0.62793,-0.0886 1.36052,0.30591 1.77109,0.61183 -0.37837,0.23346 -0.82114,0.70038 -0.31397,1.52956 z m 1.49737,1.59398 c -0.14491,0 -0.31396,0 -0.43472,0.008 -0.0724,-0.28177 -0.18515,-0.52327 -0.30591,-0.73258 0.21736,0.1932 0.47497,0.40251 0.78088,0.61988 z"
     id="path80"
     style="stroke-width:0.0805035"
     inkscape:export-xdpi="96"
     inkscape:export-ydpi="96" /><path
     class="st2"
     d="m 14.526252,44.939002 c -0.16906,-0.0322 -0.33006,-0.0483 -0.49913,-0.0564 -0.0724,0.008 -0.1449,0.0241 -0.21736,0.0402 -0.24955,0.0564 -0.49107,0.13686 -0.71648,0.24957 0.0242,0.0322 0.0483,0.0724 0.0724,0.10465 0.0645,0.10466 0.13685,0.20931 0.20931,0.31397 0.19321,-0.19321 0.41862,-0.35422 0.67623,-0.48303 0.14491,-0.0644 0.30591,-0.12075 0.47496,-0.16906 z"
     id="path82"
     style="stroke-width:0.0805035"
     inkscape:export-xdpi="96"
     inkscape:export-ydpi="96" /><path
     class="st2"
     d="m 22.399502,47.474862 c -0.42667,-2.54391 -2.27825,-4.41159 -4.27475,-4.41159 -0.0241,0 -0.0483,0 -0.0724,0 h -0.0322 l -4.39549,0.57158 v 0.008 c 0.15296,-0.0161 0.30591,-0.0322 0.45887,-0.0322 v 0 c 2.43121,0 4.64505,2.2541 5.14418,5.23273 0.161,0.95799 0.13685,1.89988 -0.0645,2.78542 -0.0805,-0.0564 -0.16101,-0.12076 -0.24151,-0.17711 0.161,-0.79699 0.18515,-1.66642 0.0403,-2.56002 -0.48302,-2.89006 -2.60026,-5.00731 -4.87047,-5.00731 -0.1932,0 -0.37836,0.0161 -0.57157,0.0483 -0.34617,0.0564 -0.67622,0.161 -0.99019,0.30592 0.12076,0.20931 0.25761,0.43472 0.41057,0.68427 0.11271,-0.0402 0.23345,-0.0724 0.35421,-0.0966 0.21736,-0.0483 0.43472,-0.0724 0.66013,-0.0724 v 0 c 0.72454,0 1.43297,0.2415 2.05285,0.67622 0.008,0 0.0161,0 0.0161,-0.008 -0.008,0 -0.008,0.008 -0.0161,0.008 1.00629,0.70038 1.80327,1.88379 2.13334,3.3087 0.16905,0.73259 0.1932,1.47322 0.0886,2.16555 -0.39447,-0.32202 -0.79698,-0.66819 -1.1995,-1.0385 l 0.008,-0.0403 c 0,0 0.66013,0.32201 1.1029,-0.20931 -0.0241,-0.25761 -0.0564,-0.50718 -0.11271,-0.77283 l 0.008,0.12075 c -0.50717,0.20126 -1.12705,-0.14491 -1.38466,-0.76478 -0.25761,-0.61988 -0.0564,-1.28001 0.45082,-1.48126 l 0.0241,0.0161 c -0.20931,-0.29786 -0.43472,-0.56352 -0.68427,-0.79698 -1.0385,0.83723 -0.49107,1.96428 -0.49107,1.96428 l -0.85334,-0.0644 c -0.20126,-0.23346 -0.39447,-0.46692 -0.57157,-0.70038 0.11269,-0.70038 0.49107,-1.28806 1.09484,-1.57787 0.0724,-0.0322 0.15295,-0.0645 0.22541,-0.0886 -0.39447,-0.25762 -0.82113,-0.43472 -1.25585,-0.52328 -0.0322,0.0161 -0.0645,0.0241 -0.0966,0.0403 -0.38641,0.18516 -0.70843,0.46692 -0.95799,0.80503 0.82918,1.22366 1.77108,2.37485 2.84177,3.4375 1.18341,1.18341 2.46341,2.2219 3.83197,3.10744 0.0483,0.0322 0.0966,0.0644 0.14491,0.0966 0.0322,0.0161 0.0564,0.0402 0.0886,0.0564 0.0483,0.0322 0.10466,0.0644 0.15296,0.0966 1.38466,-0.9258 2.16554,-2.93838 1.80328,-5.11198 z m -5.38569,-3.07523 2.76127,-0.55547 c 0,0 2.58416,1.36855 2.35875,5.32128 l -2.4473,1.37661 c 0,0 0.41861,-3.72731 -2.67272,-6.14242 z m 2.53586,7.26947 0.17711,-0.71648 2.45536,-1.38466 -0.12076,0.40252 z"
     id="path84"
     style="stroke-width:0.0805035"
     inkscape:export-xdpi="96"
     inkscape:export-ydpi="96" /><path
     class="st2"
     d="m 12.248002,40.390552 c 0,-0.0402 0.0724,-1.2317 0.69233,-2.399 0.0564,-0.10465 0.12076,-0.21736 0.19321,-0.33812 0.54743,-0.96603 1.28001,-2.26215 0.36226,-3.82392 -0.0483,0 -0.0886,0 -0.13685,0 -0.53938,0 -1.85158,-0.20126 -2.39901,-2.03674 -0.37031,-1.23975 -0.25761,-2.39094 0.32202,-3.25234 0.45082,-0.66013 1.14315,-1.08679 1.91598,-1.15925 0.0724,-0.008 0.14491,-0.008 0.21736,-0.008 0.68428,0 1.36856,0.30591 1.91599,0.86139 0.73257,0.74063 1.14314,1.82743 1.12705,2.97863 -0.008,0.66014 0.29786,2.10114 1.49736,3.3087 0.24151,0.24956 0.51522,0.47497 0.80503,0.67623 1.75498,-7.22922 -0.13685,-13.00938 -2.25409,-16.80109 -0.28176,-0.50717 -0.57963,-0.99019 -0.87749,-1.44907 -3.95273,4.31499 -6.1182697,9.86974 -6.1182697,15.76259 0,3.92053 0.9579897,7.68809 2.7612697,11.0451 0.15296,-0.0724 0.30591,-0.13686 0.46692,-0.19322 -0.37032,-1.01434 -0.55548,-2.07698 -0.49107,-3.17184 z"
     id="path86"
     style="stroke-width:0.0805035"
     inkscape:export-xdpi="96"
     inkscape:export-ydpi="96" /><path
     class="st2"
     d="m 17.681992,39.070292 c 1.69057,-1.30415 10.99678,-8.13085 22.702,-9.41086 0.10465,-0.19321 0.20931,-0.39446 0.30591,-0.59572 0.008,-0.0161 0.0161,-0.0564 0.0322,-0.12076 -6.39197,0.62793 -12.01113,2.88203 -15.81894,4.82216 -2.47146,1.26391 -4.4599,2.51172 -5.82041,3.44555 2.64052,-8.34016 0.53938,-14.98975 -1.83548,-19.23229 -1.47321,-2.64052 -3.19599,-4.66115 -4.51625,-5.98946 0.62793,0.0724 1.22365,0.1127 1.77913,0.1127 3.17989,0 4.65311,-1.20755 5.32129,-2.1816403 l -1.12705,0.2334503 c -0.74064,0.65208 -2.01259,1.26391 -4.19424,1.26391 -0.48302,0 -0.99824,-0.0322 -1.53761,-0.0886 l -1.58593,0.32201 c 1.32027,1.2156 3.49386,3.48581 5.26494,6.65764 2.48756,4.476 4.67725,11.68107 1.03044,20.76186 z"
     id="path88"
     style="stroke-width:0.0805035"
     inkscape:export-xdpi="96"
     inkscape:export-ydpi="96" /><path
     class="st2"
     d="m 18.309922,10.233932 -4.72556,0.96604 c 0.32201,0.0241 0.62792,0.0322 0.92579,0.0322 1.87573,0.008 3.05914,-0.45887 3.79977,-0.99824 z"
     id="path90"
     style="stroke-width:0.0805035"
     inkscape:export-xdpi="96"
     inkscape:export-ydpi="96" /><path
     class="st2"
     d="m 21.127542,52.498282 c 0.79698,0.33007 1.73082,0.56353 2.78542,0.71649 -0.0483,-0.20126 -0.0886,-0.41057 -0.12075,-0.61183 -0.79699,-0.12076 -1.53762,-0.30591 -2.21385,-0.56352 -0.13686,0.16905 -0.28982,0.32202 -0.45082,0.45886 z"
     id="path92"
     style="stroke-width:0.0805035"
     inkscape:export-xdpi="96"
     inkscape:export-ydpi="96" /><path
     class="st2"
     d="m 28.863932,52.329232 c -1.47321,-2.89008 -0.80504,-6.13437 1.48126,-7.23727 0.21737,-0.10465 0.45083,-0.18516 0.68428,-0.24956 -0.23345,-0.0483 -0.47497,-0.0724 -0.70843,-0.0805 -0.10465,0.0161 -0.20126,0.0322 -0.30591,0.0564 -2.84983,0.61182 -4.50015,4.03323 -3.68706,7.63174 0.71648,3.17184 3.11549,5.43399 5.62719,5.50644 0.10466,-0.0161 0.20931,-0.0322 0.30592,-0.0564 1.2317,-0.26567 2.22995,-1.04655 2.91423,-2.1414 -2.21385,0.70843 -4.94292,-0.73258 -6.31148,-3.42945 z"
     id="path94"
     style="stroke-width:0.0805035"
     inkscape:export-xdpi="96"
     inkscape:export-ydpi="96" /><path
     class="st2"
     d="m 33.009862,49.052742 -1.61007,-0.12076 -0.0241,-0.008 c 0.0564,0.59572 0.22541,1.2156 0.53133,1.81132 0.57962,1.13511 1.49736,1.95624 2.4795,2.33462 l 0.17711,-1.29612 c 0,0 0.93383,0.45888 1.56981,-0.29786 -0.0322,-0.36226 -0.0805,-0.72453 -0.161,-1.09485 l 0.008,0.17711 c -0.71648,0.28176 -1.59397,-0.20126 -1.95623,-1.07874 -0.36228,-0.8775 -0.0805,-1.81939 0.63598,-2.10115 l 0.0322,0.0241 c -0.28981,-0.41862 -0.61988,-0.79698 -0.9741,-1.12705 -1.48931,1.17535 -0.70843,2.77738 -0.70843,2.77738 z"
     id="path96"
     style="stroke-width:0.0805035"
     inkscape:export-xdpi="96"
     inkscape:export-ydpi="96" /><path
     class="st2"
     d="m 24.460382,42.604402 c 0.0564,0.0805 0.11271,0.16101 0.17712,0.24151 0.008,0.008 0.0161,0.0241 0.0241,0.0322 0.0564,0.0724 0.12076,0.14491 0.1771,0.20931 0.008,0.008 0.0241,0.0241 0.0322,0.0322 0.0645,0.0644 0.12076,0.1288 0.18516,0.1932 0.008,0.008 0.0241,0.0161 0.0322,0.0322 0.0645,0.0564 0.12881,0.12075 0.20126,0.16905 0.008,0.008 0.0161,0.0161 0.0241,0.0161 0.0724,0.0564 0.14491,0.10465 0.21736,0.15295 0,0 0,0 0,0 0.0724,0.0483 0.14491,0.0886 0.22542,0.12881 0.008,0.008 0.0161,0.008 0.0241,0.0161 0.0724,0.0402 0.14491,0.0724 0.21736,0.0966 0.0161,0.008 0.0241,0.008 0.0403,0.0161 0.0724,0.0241 0.1449,0.0483 0.21736,0.0724 0.0161,0 0.0241,0.008 0.0403,0.008 0.0564,0.0161 0.10466,0.0241 0.16101,0.0322 0.63598,-0.54743 1.36051,-0.94995 2.14139,-1.19951 0.47498,-0.88554 0.62793,-2.14945 0.32201,-3.4697 -0.0241,-0.12076 -0.0564,-0.23347 -0.0886,-0.34616 0,-0.0161 -0.008,-0.0241 -0.008,-0.0403 -0.0322,-0.10465 -0.0644,-0.21736 -0.10466,-0.32201 -0.008,-0.0161 -0.008,-0.0322 -0.0161,-0.0483 -0.0403,-0.10465 -0.0724,-0.20126 -0.12075,-0.29787 -0.008,-0.0161 -0.0161,-0.0322 -0.0241,-0.0483 -0.0403,-0.0966 -0.0886,-0.19321 -0.13685,-0.28176 -0.008,-0.0161 -0.0161,-0.0241 -0.0161,-0.0403 -0.0483,-0.0966 -0.0966,-0.18516 -0.15296,-0.28176 0,-0.008 -0.008,-0.008 -0.008,-0.0161 -0.0564,-0.0886 -0.11271,-0.1771 -0.16906,-0.26565 0,-0.008 -0.008,-0.008 -0.008,-0.0161 -0.0564,-0.0805 -0.1127,-0.16101 -0.1771,-0.24151 -0.008,-0.008 -0.0161,-0.0241 -0.0241,-0.0322 -0.0564,-0.0724 -0.12075,-0.14491 -0.18516,-0.20931 -0.008,-0.008 -0.0242,-0.0242 -0.0322,-0.0322 -0.0644,-0.0645 -0.12879,-0.12881 -0.1932,-0.19321 -0.008,-0.008 -0.0242,-0.0161 -0.0322,-0.0322 -0.0645,-0.0644 -0.13685,-0.12076 -0.20126,-0.16906 -0.008,-0.008 -0.0161,-0.008 -0.0241,-0.0161 -0.0724,-0.0564 -0.1449,-0.10465 -0.21735,-0.15296 0,0 0,0 0,0 -0.0724,-0.0483 -0.14491,-0.0886 -0.22541,-0.1288 -0.008,-0.008 -0.0161,-0.008 -0.0242,-0.0161 -0.0724,-0.0403 -0.14491,-0.0724 -0.21736,-0.0966 -0.008,-0.008 -0.0241,-0.008 -0.0322,-0.0161 -0.0724,-0.0242 -0.14491,-0.0483 -0.21736,-0.0724 -0.0161,0 -0.0241,-0.008 -0.0403,-0.008 -0.0724,-0.0161 -0.14491,-0.0322 -0.21736,-0.0403 -0.008,0 -0.0241,0 -0.0322,0 -0.0724,-0.008 -0.15296,-0.0161 -0.22542,-0.0161 -0.008,0 -0.0161,0 -0.0161,0 -0.0564,0 -0.10465,0 -0.161,0.008 -0.0161,0 -0.0322,0 -0.0483,0.008 -0.0564,0.008 -0.12076,0.0161 -0.1771,0.0322 -1.46517,0.33006 -2.24605,2.41511 -1.73888,4.6531 0.0241,0.12076 0.0564,0.23347 0.0886,0.34617 0,0.0161 0.008,0.0241 0.008,0.0402 0.0322,0.10465 0.0643,0.21736 0.10465,0.32201 0.008,0.0161 0.008,0.0322 0.0161,0.0483 0.0403,0.10465 0.0724,0.20126 0.12075,0.29786 0.008,0.0161 0.0161,0.0322 0.0241,0.0483 0.0403,0.0966 0.0886,0.19322 0.13686,0.28177 0.008,0.0161 0.0161,0.0241 0.0241,0.0402 0.0483,0.0966 0.0966,0.18517 0.15296,0.27372 0,0.008 0.008,0.008 0.008,0.0161 0.0564,0.0886 0.1127,0.17711 0.16905,0.25761 -0.008,0.008 -0.008,0.0161 0,0.0241 z m 2.1253,-1.03849 c -0.0564,0.008 -0.10465,0.0161 -0.16101,0.0161 0.49108,-0.23346 0.73258,-0.99825 0.54743,-1.81938 -0.18516,-0.82113 -0.74064,-1.40882 -1.28001,-1.40077 0.0483,-0.0241 0.0966,-0.0402 0.15296,-0.0564 0.58767,-0.13686 1.23975,0.48301 1.44101,1.38465 0.20126,0.90164 -0.1127,1.73888 -0.70038,1.87574 z m -1.14315,-5.03147 c 1.26391,-0.28982 2.64857,1.04654 3.08329,2.97058 0.43472,1.93208 -0.23347,3.72731 -1.49738,4.01712 -0.0161,0 -0.0322,0.008 -0.0483,0.008 1.2317,-0.32202 1.88378,-2.10115 1.44906,-4.00103 -0.43471,-1.89989 -1.77912,-3.22015 -3.03498,-2.98668 0.0161,0 0.0322,-0.008 0.0483,-0.008 z"
     id="path98"
     style="stroke-width:0.0805035"
     inkscape:export-xdpi="96"
     inkscape:export-ydpi="96" /><path
     class="st2"
     d="m 20.966542,52.635142 c -0.0483,0.0402 -0.0966,0.0805 -0.14491,0.11271 1.10289,0.66817 2.2541,1.2317 3.44554,1.70667 -0.12074,-0.33812 -0.2254,-0.68428 -0.31396,-1.0385 -1.13509,-0.16905 -2.13334,-0.42667 -2.98667,-0.78088 z"
     id="path100"
     style="stroke-width:0.0805035"
     inkscape:export-xdpi="96"
     inkscape:export-ydpi="96" /><path
     class="st2"
     d="m 54.407702,36.719592 c -0.0241,0 -0.0483,0 -0.0724,0 h -0.0322 l -0.39447,0.0483 c -0.0322,0.34616 -0.0805,0.72453 -0.1449,1.1351 l 2.22994,-0.45083 c 0,0 2.46341,1.30416 2.2541,5.07977 l -2.34265,1.32027 c 0,0 0.37031,-3.27649 -2.2058,-5.5789 -0.0241,0.11271 -0.0403,0.21736 -0.0645,0.33007 0.90969,0.89358 1.58593,2.1736 1.82743,3.6307 0.24956,1.50542 0.0241,2.99474 -0.64402,4.19424 -0.31397,0.56353 -0.70843,1.04654 -1.15926,1.41687 l 2.88203,-1.916 c 1.47321,-0.82113 2.3185,-2.83372 1.95624,-5.00731 -0.41057,-2.41511 -2.18165,-4.20229 -4.08958,-4.20229 z m 3.75952,6.58519 -2.39901,1.63422 0.16906,-0.68427 2.3507,-1.32026 z"
     id="path102"
     style="stroke-width:0.0805035"
     inkscape:export-xdpi="96"
     inkscape:export-ydpi="96" /><path
     class="st2"
     d="m 55.196642,42.282392 c -0.22541,-1.35246 -0.82919,-2.52781 -1.63423,-3.3731 -0.0724,0.30591 -0.15295,0.61988 -0.2415,0.94995 -0.0161,0.0483 -0.0322,0.10465 -0.0403,0.15295 -0.0322,0.1127 -0.0724,0.22541 -0.10465,0.33812 l 0.008,0.008 0.2576,0.21736 0.35422,0.30591 c 0.11271,0.1288 0.20126,0.26566 0.29787,0.41057 0.0564,0.0886 0.1127,0.18516 0.161,0.27371 1.09485,2.02063 0.0645,4.88656 -2.399,6.52883 -0.18516,0.12881 -0.38642,0.24152 -0.57963,0.34617 0,0 0,0 0,0 0.18516,0 0.36227,-0.0161 0.54742,-0.0403 2.35876,-0.38641 3.87222,-3.12353 3.3731,-6.11826 z"
     id="path104"
     style="stroke-width:0.0805035"
     inkscape:export-xdpi="96"
     inkscape:export-ydpi="96" /><path
     class="st2"
     d="m 52.218012,36.993312 v 0 l 0.19321,0.0966 -2.82568,-2.2541 c 0.008,0.24151 0.0161,0.46692 0.0161,0.68428 z"
     id="path106"
     style="stroke-width:0.0805035"
     inkscape:export-xdpi="96"
     inkscape:export-ydpi="96" /><path
     class="st2"
     d="m 52.572222,38.506772 -0.0564,-0.0483 -2.89813,-2.11724 c 0,0.27371 -0.008,0.49912 -0.0161,0.67622 l 2.84178,1.44102 z"
     id="path108"
     style="stroke-width:0.0805035"
     inkscape:export-xdpi="96"
     inkscape:export-ydpi="96" /><path
     class="st2"
     d="m 29.137642,8.0120317 -1.03849,0.20931 c -0.77283,0.89359 -2.04479,1.8113303 -3.96883,1.8113303 -0.79699,0 -1.65837,-0.1610103 -2.56001,-0.4749703 l -1.2156,0.24956 c 1.3444,0.6037803 2.60831,0.9096903 3.77561,0.9096903 2.70492,0.008 4.24254,-1.5617703 5.00732,-2.7049203 z"
     id="path110"
     style="stroke-width:0.0805035"
     inkscape:export-xdpi="96"
     inkscape:export-ydpi="96" /><path
     class="st2"
     d="m 42.380482,6.1524017 c 1.56981,0 2.50365,-0.75673 3.04303,-1.48127 l -5.24883,1.07875 c 0.79698,0.26567 1.52956,0.40252 2.2058,0.40252 0,0 0,0 0,0 z"
     id="path112"
     style="stroke-width:0.0805035"
     inkscape:export-xdpi="96"
     inkscape:export-ydpi="96" /><path
     class="st2"
     d="m 49.488932,33.338442 c 0.0161,0.13686 0.0241,0.27372 0.0322,0.40252 0.008,0.0886 0.0161,0.17711 0.0161,0.26567 l 2.52782,1.50541 -1.71473,-1.44906 z"
     id="path114"
     style="stroke-width:0.0805035"
     inkscape:export-xdpi="96"
     inkscape:export-ydpi="96" /><path
     class="st2"
     d="m 47.146282,41.034582 c 1.04655,-0.70038 2.2541,-1.08679 3.4053,-1.08679 0.42668,0 0.82919,0.0564 1.20756,0.15295 l -2.05285,-1.73888 c -0.39446,-0.32201 -0.86943,-0.48301 -1.4088,-0.48301 -1.07071,0 -2.16555,0.63598 -2.72103,1.02239 -1.66642,1.1351 -2.47145,2.97058 -1.92403,4.35524 0.0564,0.14491 0.1127,0.26566 0.18515,0.40251 l 0.0161,0.0322 0.63598,1.52151 c 0.0241,-0.37031 0.10465,-0.75672 0.23346,-1.14315 0.40252,-1.1834 1.26391,-2.26214 2.42315,-3.03498 z m 0.86139,-2.90618 1.73083,1.61813 -0.27372,0.0402 -1.73888,-1.57787 z m -0.41056,0.11271 1.73082,1.58592 -0.22541,0.0644 -1.73888,-1.57786 z m -2.94644,5.29714 -0.86138,-1.86769 c 0.79698,-2.39901 3.38115,-3.30065 3.38115,-3.30065 l 1.73887,1.56983 c -3.3731,1.09484 -4.25864,3.59851 -4.25864,3.59851 z"
     id="path116"
     style="stroke-width:0.0805035"
     inkscape:export-xdpi="96"
     inkscape:export-ydpi="96" /><path
     class="st2"
     d="m 42.380482,7.0218417 c 2.20579,0 3.4858,-1.26391 4.11372,-2.39901 5.20054,4.22644 7.52709,9.6845803 6.93136,16.2375703 -0.37836,4.09763 -1.83548,7.42243 -2.43925,8.63803 -0.62793,-0.13686 -1.25586,-0.24957 -1.89184,-0.34617 0.28981,0.25762 0.65208,0.56353 1.0546,0.87748 0.40251,0.0805 0.80503,0.16102 1.1995,0.24957 0.28176,-0.52327 2.29435,-4.39549 2.75322,-9.37061 0.42667,-4.65311 -0.48302,-11.2060903 -6.91525,-16.6078803 l -1.50542,0.32201 c -0.53937,0.80504 -1.53762,1.71473 -3.30064,1.71473 0,0 0,0 0,0 -0.76479,0 -1.61813,-0.16906 -2.55196,-0.51522 l -1.18341,0.2415 c 1.36856,0.62793 2.62441,0.958 3.73537,0.958 0,0 0,0 0,0 z"
     id="path118"
     style="stroke-width:0.0805035"
     inkscape:export-xdpi="96"
     inkscape:export-ydpi="96" /><path
     class="st2"
     d="m 33.670002,8.0200817 c 1.67446,0 2.75321,-0.82919 3.39724,-1.63422 l -5.756,1.18341 c 0.84528,0.29786 1.63422,0.45081 2.35876,0.45081 0,0 0,0 0,0 z"
     id="path120"
     style="stroke-width:0.0805035"
     inkscape:export-xdpi="96"
     inkscape:export-ydpi="96" /><path
     class="st2"
     d="m 33.670002,8.8895217 c 2.4151,0 3.89637,-1.48127 4.62894,-2.75322 l -0.95799,0.19321 c -0.66013,0.89359 -1.80328,1.87573 -3.67095,1.87573 0,0 0,0 0,0 -0.82114,0 -1.72279,-0.19321 -2.68883,-0.57158 l -1.15925,0.23347 c 1.39272,0.67622 2.68077,1.02239 3.84808,1.02239 0,0 0,0 0,0 z"
     id="path122"
     style="stroke-width:0.0805035"
     inkscape:export-xdpi="96"
     inkscape:export-ydpi="96" /><path
     class="st2"
     d="m 27.801282,8.2857517 -5.86871,1.1995 c 0.77284,0.24151 1.51347,0.37031 2.20581,0.37031 1.72277,0 2.89812,-0.77283 3.6629,-1.56981 z"
     id="path124"
     style="stroke-width:0.0805035"
     inkscape:export-xdpi="96"
     inkscape:export-ydpi="96" /><path
     class="st0"
     d="m 58.746842,40.889682 c -0.16905,-1.0063 -0.57158,-1.92404 -1.11899,-2.65662 0.39446,-1.77913 0.60377,-3.63071 0.60377,-5.5306 0,-4.94291 -1.41686,-9.54771 -3.85611,-13.45213 0,0 0,0 0,0 v 0 c 0.0643,-4.48406 -1.28807,-10.1917503 -6.95552,-14.9978103 l 1.73084,-0.35421 -0.33007,-1.61008 -39.5352897,8.1228103 0.33006,1.61007 1.5456697,-0.31397 c 0.82919,0.75674 2.03674,1.96429 3.26844,3.58241 -4.29889,4.53235 -6.9393997,10.66672 -6.9393997,17.42096 0,11.48786 7.6397897,21.19658 18.1132897,24.31208 1.46517,2.03673 3.59851,3.3248 5.86066,3.3248 0.31397,0 0.62793,-0.0241 0.93384,-0.0724 0.12881,-0.0241 0.26566,-0.0483 0.41862,-0.0805 0.45887,-0.10465 0.90969,-0.2737 1.34441,-0.49107 l 0.45082,-0.24151 2.65662,-1.76303 c 6.10217,-1.07069 11.4476,-4.32303 15.21517,-8.91978 0.008,0 0.0241,-0.008 0.0322,-0.008 0.18516,-0.0644 0.36226,-0.14491 0.54743,-0.24152 l 0.0322,-0.0161 0.28176,-0.16905 3.29259,-2.18165 c 1.59397,-0.89359 2.44731,-3.05913 2.07699,-5.27298 z m -4.95902,-5.88481 c 0.0242,0.80503 -0.0161,2.82567 -0.77283,5.20858 l -0.49107,-0.41862 c 0.86944,-2.89813 0.65208,-5.17638 0.65208,-5.17638 l 0.45887,-0.33006 -0.28981,-1.61007 c -1.66643,-0.46693 -3.41335,-1.78718 -4.49211,-2.70492 0,-0.008 0,-0.0161 -0.008,-0.0161 l -0.29786,-0.2737 c 0.41862,1.08679 1.52957,2.76932 4.26669,3.5341 0,0 -2.43121,0.28177 -3.88026,-1.44906 l 0.0403,0.2254 c 0.0403,0.26567 0.0724,0.72454 0.10466,1.00631 l 0.0322,0.0241 c 0.0161,0.18515 0.0403,0.38641 0.0564,0.58768 0,0.0241 0,0.0483 0.008,0.0644 0,0.0403 0.008,0.0805 0.008,0.12076 l -0.0161,-0.008 c 0.0161,0.161 0.0241,0.2576 0.0403,0.34616 0.0564,0.94189 0.0564,1.99649 -0.0241,3.12354 l 0.0403,0.0161 c 0,0 0,0.008 0,0.008 -0.16101,-0.0483 -0.33812,-0.0886 -0.50718,-0.1127 0.15296,-3.59851 -0.46692,-6.64154 -0.99019,-8.51728 -0.27371,-0.90969 -0.40252,-1.2961 -0.55547,-1.70667 -0.0805,-0.20931 -0.12881,-0.33007 -0.13686,-0.33812 l 0.008,-0.008 c -0.14491,-0.40252 -0.33812,-0.94189 -0.68428,-1.98039 -0.88554,-2.66467 -0.42667,-4.36329 -0.42667,-4.36329 0,0 1.81938,-0.0724 2.51976,-0.0886 0.70038,-0.0161 0.44277,-0.958 0.44277,-0.958 -0.0483,-0.0241 -0.0966,-0.18515 -0.14491,-0.20126 0.0805,-0.90968 -0.43471,-1.65837 -0.43471,-1.65837 -0.0322,0.42667 -0.28982,1.07875 -0.45887,1.45712 -0.24152,-0.0161 -0.47497,-0.008 -0.69233,0.008 -0.16907,-0.90969 -0.8775,-1.50542 -0.8775,-1.50542 0.0966,0.46692 -0.008,1.29611 -0.0645,1.67447 -0.2254,0.0645 -0.36226,-0.0644 -0.36226,-0.0644 -0.22541,-0.16101 -0.38641,-0.24956 -0.38641,-0.24956 -1.68253,-0.94189 -2.28631,-2.13335 -1.48127,-3.54216 0.80503,-1.4088 2.97863,0.46692 2.97863,0.46692 0.008,0.008 0.0241,0.008 0.0322,0.0161 0.0161,0.35422 0.0403,1.23976 -0.1127,1.71473 0,0 0.80503,-0.53937 1.0546,-1.46516 0.37031,0.0564 0.73258,0.0724 1.0546,0.0643 0.008,0.42667 0,1.03849 -0.12076,1.40881 0,0 0.81309,-0.53937 1.05459,-1.47321 0.0886,-0.008 0.13686,-0.0161 0.13686,-0.0161 0,0 0.34617,-0.73259 0.48302,-2.1253 0.13686,-1.39271 -1.09485,-0.78894 -1.91598,-0.60377 -0.16906,0.0402 -0.33812,0.008 -0.48302,-0.0564 -0.46693,-0.0805 -1.35246,-0.0886 -1.84353,0.80504 0,0 0.0403,-1.119 1.32025,-1.27195 -0.29786,-0.38643 -0.50717,-0.91774 -0.61182,-1.31222 -0.20126,-0.77283 -1.36857,-0.32201 -1.36857,-0.32201 -2.00453,-0.53132 -3.08328,0.77283 -3.08328,0.77283 -1.56982,-0.53132 -2.00454,-0.0403 -2.00454,-0.0403 0.27371,1.56982 0.54743,1.66642 0.54743,1.66642 l 0.70843,0.18516 c -1.20756,1.18341 -0.98215,5.16833 -0.33812,9.61213 0.63598,4.44379 -0.0645,6.21487 -0.0645,6.21487 -1.2478,2.74517 -3.4697,4.6048 -6.26317,5.83651 -0.13686,-0.16906 -0.27371,-0.33007 -0.41862,-0.48302 2.96253,-1.27196 5.01537,-3.1316 6.12632,-5.57085 l 0.008,-0.008 v -0.008 c 0.0645,-0.18516 0.59573,-1.94014 0.0241,-5.89286 -0.68428,-4.78192 -0.70843,-7.61564 -0.0805,-9.18546 l 0.0564,-0.13685 -0.12075,-0.0805 c -0.32202,-0.2254 -0.56353,-0.85333 -0.76479,-2.03674 l -0.0483,-0.28176 0.18516,-0.20931 c 0.10466,-0.12075 0.44277,-0.41057 1.19146,-0.41057 0.30591,0 0.64402,0.0483 1.01434,0.14492 l 0.0886,0.0241 0.0724,-0.0564 c 0.44276,-0.35421 1.19144,-0.76478 2.22994,-0.76478 0.28176,0 0.57157,0.0322 0.86944,0.0966 l 0.0403,0.008 0.0403,-0.008 c 0.161,-0.0483 0.41057,-0.0966 0.66817,-0.0966 0.65208,0 1.11095,0.33006 1.25586,0.90164 0.16905,0.67623 0.57157,1.32831 0.85333,1.40076 l 0.0483,0.0161 0.0483,-0.0161 c 0.0966,-0.0241 0.21736,-0.0644 0.36227,-0.10466 0.33007,-0.0966 0.70844,-0.20126 1.0546,-0.20126 0.46692,0 0.74063,0.19321 0.89359,0.36228 0.24956,0.2737 0.34616,0.66817 0.29786,1.19144 -0.14491,1.45712 -0.49912,2.238 -0.53937,2.32655 l -0.12881,0.27372 -0.0886,0.0161 -0.0403,0.0886 c -0.33811,0.74868 -0.91774,1.19951 -1.08679,1.32026 l -0.10466,0.0805 0.0403,0.1288 c 0.0724,0.22541 0.1127,0.44277 0.13686,0.66013 l 0.008,0.10465 0.0564,0.0241 0.0724,0.2576 c 0.0483,0.18517 0.18515,0.82919 -0.16102,1.29612 -0.1932,0.2576 -0.49107,0.40251 -0.83723,0.41056 -0.41861,0.008 -1.2478,0.0402 -1.86768,0.0643 l -0.16101,0.008 -0.0161,0.16101 c -0.0564,0.72453 -0.0161,1.91599 0.49913,3.44555 0.37031,1.11095 0.55546,1.63423 0.70843,2.05285 0.20931,0.57157 0.3381,0.91774 0.70843,2.17359 l 0.0161,0.0483 0.0322,0.0322 c 0.66013,0.63598 2.99473,2.76933 5.12808,3.3731 l 0.35421,0.0966 0.41862,2.34265 -0.41862,0.30591 -0.0805,0.0564 z m -18.08109,3.41335 c 0.28981,1.27195 0.20126,2.4956 -0.16101,3.44555 l -4.91877,0.63598 c -0.008,-0.008 -0.008,-0.0161 -0.0161,-0.0241 -0.0161,-0.0242 -0.0322,-0.0483 -0.0483,-0.0724 -0.0403,-0.0564 -0.0724,-0.11271 -0.11271,-0.16102 -0.008,-0.008 -0.0161,-0.0241 -0.0241,-0.0322 -0.0403,-0.0645 -0.0805,-0.12881 -0.1127,-0.19321 -0.0161,-0.0241 -0.0241,-0.0483 -0.0403,-0.0724 -0.0241,-0.0483 -0.0483,-0.0886 -0.0724,-0.13685 -0.0161,-0.0322 -0.0322,-0.0564 -0.0483,-0.0886 -0.0241,-0.0402 -0.0483,-0.0805 -0.0643,-0.1288 -0.0161,-0.0322 -0.0322,-0.0644 -0.0483,-0.0966 -0.0241,-0.0403 -0.0403,-0.0805 -0.0564,-0.12881 -0.0161,-0.0322 -0.0322,-0.0644 -0.0403,-0.0966 -0.0161,-0.0403 -0.0403,-0.0886 -0.0564,-0.12881 -0.0161,-0.0322 -0.0241,-0.0644 -0.0403,-0.10466 -0.0161,-0.0403 -0.0322,-0.0886 -0.0564,-0.13686 -0.0161,-0.0322 -0.0241,-0.0645 -0.0403,-0.10465 -0.0161,-0.0483 -0.0322,-0.0966 -0.0483,-0.13685 -0.008,-0.0322 -0.0241,-0.0644 -0.0322,-0.10466 -0.0161,-0.0483 -0.0322,-0.0966 -0.0483,-0.15296 -0.008,-0.0322 -0.0241,-0.0643 -0.0322,-0.0966 -0.0161,-0.0564 -0.0322,-0.11271 -0.0483,-0.16905 -0.008,-0.0241 -0.0161,-0.0564 -0.0241,-0.0805 -0.0242,-0.0886 -0.0403,-0.16906 -0.0645,-0.25761 -0.66014,-2.89813 0.35421,-5.59499 2.2541,-6.02972 0.0805,-0.0161 0.15295,-0.0322 0.23345,-0.0403 0.0161,0 0.0403,-0.008 0.0643,-0.008 0.0724,-0.008 0.14491,-0.008 0.20931,-0.008 0.008,0 0.0161,0 0.0241,0 0.0161,0 0.0403,0 0.0564,0 0.0403,0 0.0805,0 0.1127,0.008 0.0241,0 0.0483,0.008 0.0724,0.008 0.0322,0 0.0724,0.008 0.10466,0.008 0.0241,0 0.0483,0.008 0.0724,0.0161 0.0322,0.008 0.0645,0.008 0.0966,0.0161 0.0241,0.008 0.0483,0.008 0.0724,0.0161 0.0322,0.008 0.0644,0.0161 0.0966,0.0242 0.0241,0.008 0.0483,0.0161 0.0724,0.0241 0.0322,0.008 0.0644,0.0241 0.0966,0.0322 0.0241,0.008 0.0483,0.0161 0.0724,0.0241 0.0322,0.008 0.0644,0.0241 0.0966,0.0402 0.0242,0.008 0.0483,0.0242 0.0724,0.0322 0.0322,0.0161 0.0645,0.0322 0.0966,0.0483 0.0241,0.008 0.0483,0.0241 0.0724,0.0322 0.0322,0.0161 0.0724,0.0403 0.10465,0.0564 0.0241,0.008 0.0403,0.0241 0.0643,0.0322 0.0403,0.0241 0.0886,0.0564 0.12881,0.0805 0.008,0.008 0.0241,0.0161 0.0322,0.0161 0.0564,0.0322 0.10466,0.0724 0.16101,0.11269 0.0161,0.0161 0.0403,0.0322 0.0564,0.0403 0.0322,0.0241 0.0643,0.0483 0.10466,0.0805 0.0241,0.0161 0.0403,0.0322 0.0644,0.0564 0.0322,0.0241 0.0564,0.0483 0.0886,0.0724 0.0241,0.0161 0.0483,0.0403 0.0645,0.0643 0.0322,0.0241 0.0564,0.0483 0.0886,0.0805 0.0241,0.0241 0.0483,0.0402 0.0644,0.0645 0.0242,0.0241 0.0564,0.0564 0.0805,0.0805 0.0242,0.0241 0.0483,0.0483 0.0645,0.0724 0.0241,0.0322 0.0564,0.0564 0.0805,0.0886 0.0241,0.0241 0.0403,0.0483 0.0644,0.0724 0.0242,0.0322 0.0483,0.0644 0.0805,0.0966 0.0241,0.0241 0.0403,0.0483 0.0644,0.0724 0.0241,0.0322 0.0564,0.0644 0.0805,0.10465 0.0161,0.0241 0.0403,0.0483 0.0564,0.0724 0.0241,0.0402 0.0564,0.0724 0.0805,0.1127 0.0161,0.0241 0.0322,0.0483 0.0483,0.0724 0.0403,0.0564 0.0724,0.10465 0.10466,0.161 0.008,0.008 0.0161,0.0241 0.0241,0.0322 0.0403,0.0643 0.0805,0.12881 0.11271,0.19321 0.0161,0.0241 0.0322,0.0483 0.0403,0.0724 0.0242,0.0403 0.0483,0.0886 0.0724,0.12881 0.0161,0.0322 0.0322,0.0564 0.0483,0.0886 0.0241,0.0403 0.0403,0.0805 0.0643,0.12881 0.0161,0.0322 0.0322,0.0644 0.0483,0.0966 0.0161,0.0403 0.0403,0.0805 0.0564,0.1288 0.0161,0.0322 0.0322,0.0644 0.0483,0.0966 0.0161,0.0402 0.0403,0.0886 0.0564,0.12879 0.0161,0.0322 0.0322,0.0644 0.0403,0.10466 0.0161,0.0403 0.0322,0.0886 0.0483,0.12881 0.0161,0.0322 0.0241,0.0724 0.0403,0.10465 0.0161,0.0483 0.0322,0.0886 0.0483,0.13686 0.008,0.0322 0.0241,0.0724 0.0322,0.10466 0.0161,0.0483 0.0322,0.0966 0.0483,0.1449 0.008,0.0322 0.0241,0.0644 0.0322,0.0966 0.0161,0.0564 0.0322,0.11271 0.0483,0.16906 0.008,0.0322 0.0161,0.0564 0.0241,0.0886 0.0241,0.0886 0.0403,0.16905 0.0643,0.2576 0.28981,1.28807 0.25762,2.52782 -0.0403,3.55827 -0.0564,0 -0.1127,-0.008 -0.16905,-0.008 -0.0161,0 -0.0241,0 -0.0403,0 h -0.0643 l -0.10465,0.0161 -0.25762,0.0322 c 0.37033,-0.94993 0.45888,-2.18164 0.16907,-3.4536 -0.57158,-2.50366 -2.35876,-4.22643 -4.00103,-3.85611 -0.0241,0.008 -0.0483,0.008 -0.0643,0.0161 1.65033,-0.29786 3.39725,1.40882 3.95272,3.88028 z m -17.09895,0.20126 c -0.66818,0.48302 -1.0868,0.81309 -1.0868,0.81309 0.0322,-0.0241 0.83724,-0.67624 2.2541,-1.64228 0.13686,-0.0966 0.27372,-0.18515 0.41862,-0.28176 0.94189,-0.15296 1.95623,0.84528 2.27825,2.27825 0.33007,1.44906 -0.16101,2.80152 -1.1029,3.05108 0.0161,0 0.0242,-0.008 0.0403,-0.008 0.96604,-0.21736 1.48126,-1.58593 1.14315,-3.05915 -0.33006,-1.46515 -1.38466,-2.4795 -2.34266,-2.27019 0.20126,-0.13686 0.41862,-0.27372 0.63598,-0.41862 0.0241,0.008 0.0403,0.008 0.0643,0.0161 0.0241,0.008 0.0483,0.0161 0.0805,0.0241 0.0403,0.0161 0.0886,0.0403 0.12881,0.0564 0.0241,0.008 0.0403,0.0161 0.0645,0.0322 0.0643,0.0322 0.12076,0.0644 0.18515,0.10466 0,0 0.008,0 0.008,0.008 0.0644,0.0403 0.1288,0.0886 0.18515,0.13686 0.0161,0.0161 0.0403,0.0322 0.0564,0.0483 0.0403,0.0322 0.0805,0.0724 0.12076,0.10465 0.0241,0.0241 0.0483,0.0483 0.0724,0.0724 0.0322,0.0322 0.0724,0.0724 0.10465,0.1127 0.0241,0.0241 0.0483,0.0564 0.0724,0.0805 0.0322,0.0402 0.0644,0.0805 0.0966,0.12076 0.0241,0.0322 0.0483,0.0644 0.0643,0.0886 0.0322,0.0402 0.0564,0.0805 0.0886,0.12881 0.0241,0.0322 0.0403,0.0644 0.0643,0.0966 0.0241,0.0483 0.0564,0.0886 0.0805,0.13685 0.0161,0.0322 0.0403,0.0724 0.0564,0.10465 0.0241,0.0483 0.0483,0.0966 0.0724,0.15296 0.0161,0.0402 0.0322,0.0724 0.0483,0.11271 0.0241,0.0564 0.0483,0.1127 0.0644,0.161 0.0161,0.0403 0.0322,0.0724 0.0403,0.11271 0.0241,0.0643 0.0402,0.12881 0.0643,0.1932 0.008,0.0322 0.0241,0.0644 0.0322,0.0966 0.0322,0.0966 0.0564,0.20126 0.0805,0.29786 0.38642,1.70668 -0.20931,3.2926 -1.32831,3.54216 -0.0643,0.0161 -0.1288,0.0241 -0.18515,0.0241 -0.0161,0 -0.0403,0 -0.0564,0 -0.0403,0 -0.0886,0 -0.12881,0 -0.0322,0 -0.0564,0 -0.0886,-0.008 -0.0403,-0.008 -0.0805,-0.008 -0.12076,-0.0161 -0.0322,-0.008 -0.0564,-0.008 -0.0886,-0.0161 -0.0403,-0.008 -0.0805,-0.0241 -0.12076,-0.0322 -0.0241,-0.008 -0.0564,-0.0161 -0.0805,-0.0241 -0.0403,-0.0161 -0.0886,-0.0402 -0.1288,-0.0564 -0.0241,-0.008 -0.0483,-0.0161 -0.0644,-0.0322 -0.0644,-0.0322 -0.12075,-0.0644 -0.18516,-0.10466 0,0 -0.008,-0.008 -0.008,-0.008 -0.0643,-0.0402 -0.1288,-0.0886 -0.18516,-0.13685 -0.0241,-0.0161 -0.0403,-0.0322 -0.0643,-0.0564 -0.0403,-0.0322 -0.0805,-0.0724 -0.12076,-0.10465 -0.0241,-0.0241 -0.0483,-0.0483 -0.0724,-0.0724 -0.0322,-0.0322 -0.0724,-0.0724 -0.10465,-0.11271 -0.0241,-0.0241 -0.0483,-0.0564 -0.0724,-0.0805 -0.0322,-0.0403 -0.0644,-0.0805 -0.0966,-0.12075 -0.0242,-0.0322 -0.0483,-0.0644 -0.0643,-0.0886 -0.0322,-0.0403 -0.0564,-0.0805 -0.0886,-0.12881 -0.0241,-0.0322 -0.0403,-0.0643 -0.0643,-0.10465 -0.0242,-0.0483 -0.0564,-0.0886 -0.0805,-0.13685 -0.0161,-0.0322 -0.0403,-0.0724 -0.0564,-0.10465 -0.0241,-0.0483 -0.0483,-0.0966 -0.0724,-0.14492 -0.0161,-0.0403 -0.0322,-0.0724 -0.0483,-0.1127 -0.0241,-0.0564 -0.0483,-0.11271 -0.0643,-0.161 -0.0161,-0.0403 -0.0322,-0.0724 -0.0403,-0.11271 -0.0241,-0.0644 -0.0403,-0.12881 -0.0644,-0.19321 -0.008,-0.0322 -0.0242,-0.0644 -0.0322,-0.0966 -0.0322,-0.0966 -0.0564,-0.20126 -0.0805,-0.29787 -0.17711,-0.78088 -0.1449,-1.53761 0.0483,-2.15749 -0.0724,0.0805 -0.1449,0.13685 -0.22541,0.19321 z m -6.92331,-7.05212 c 0.59573,1.98039 2.16555,1.40882 2.16555,1.40882 1.77913,2.36681 0.32202,4.34719 -0.22541,5.37763 -0.54742,1.0224 -0.59573,2.077 -0.59573,2.077 -0.0564,1.00629 0.12881,1.98844 0.46692,2.93837 l -0.2254,0.0322 0.008,0.0161 c -0.008,0 -0.008,0 -0.0161,0 l -0.0242,0.008 c -0.1127,0.0241 -0.21736,0.0483 -0.33006,0.0805 -0.35421,-0.99824 -0.53937,-2.04479 -0.47497,-3.10744 0,-0.0483 0.0643,-1.19145 0.66817,-2.3185 0.0564,-0.10465 0.12076,-0.21736 0.18517,-0.33811 0.56352,-0.99019 1.33636,-2.35071 0.35421,-4.00908 l -0.0564,-0.0966 -0.1127,0.008 c -0.0403,0 -0.0886,0 -0.12881,0 -0.49912,0 -1.71472,-0.18516 -2.22995,-1.90793 -0.35422,-1.18341 -0.24956,-2.28631 0.29786,-3.09939 0.41862,-0.61988 1.06265,-1.01435 1.77913,-1.07874 0.0645,-0.008 0.13686,-0.008 0.20127,-0.008 0.63597,0 1.27195,0.28981 1.78717,0.80504 0.70038,0.70843 1.08679,1.74693 1.0707,2.84982 -0.008,0.68428 0.30591,2.1897 1.54567,3.4375 0.26566,0.27372 0.56352,0.51522 0.88553,0.74063 -0.0322,0.13686 -0.0886,0.34617 -0.16101,0.59573 -2.24605,-1.43297 -2.88202,-3.64681 -2.86592,-4.78191 0.0241,-1.81938 -1.20756,-3.16379 -2.41511,-3.05108 -1.19145,0.12076 -2.14944,1.44101 -1.55372,3.42139 z m 9.64433,5.5145 c -0.0886,-0.0483 -0.18516,-0.0886 -0.28176,-0.12881 0.20931,-0.13686 0.42667,-0.26565 0.64403,-0.40251 0.66817,0.12075 1.39271,0.18515 2.17359,0.18515 0.0322,0 0.0643,0 0.0966,0 -0.12075,0.17711 -0.2254,0.37032 -0.32201,0.58768 -0.86139,-0.0161 -1.62618,-0.0966 -2.31045,-0.24151 z m 2.52781,-0.53132 c 0,0 0,0 0,0 -0.68428,0 -1.32026,-0.0483 -1.91599,-0.14491 4.09763,-2.47146 10.69893,-5.6916 18.33066,-6.55299 -1.1673,2.02869 -3.06718,3.60656 -5.6916,4.71751 -0.70038,-0.66013 -1.52151,-1.04655 -2.34265,-1.04655 -0.19322,0 -0.37837,0.0241 -0.56353,0.0644 -0.98214,0.22541 -1.77108,1.00629 -2.21384,2.20579 -0.0322,0.0805 -0.0483,0.16101 -0.0805,0.23346 -0.65208,0.11271 -1.33636,0.20931 -2.04479,0.28176 -0.49107,-0.38641 -1.03045,-0.60377 -1.58593,-0.60377 -0.15295,0 -0.29786,0.0161 -0.44276,0.0483 -0.46693,0.10466 -0.87749,0.37837 -1.20756,0.78089 -0.0805,0.0161 -0.161,0.0161 -0.2415,0.0161 z m 5.45814,-0.31397 c -0.0564,0.20126 -0.10466,0.41057 -0.13686,0.62793 -0.37836,0.0564 -0.76478,0.11271 -1.15119,0.161 -0.16102,-0.20125 -0.32202,-0.37836 -0.49912,-0.53937 0.61182,-0.0724 1.20755,-0.15295 1.78717,-0.24956 z m 7.18897,-0.42667 c 0,0 7.96984,-2.3668 6.28733,-11.34294 -1.68253,-8.97615 -0.41057,-10.38496 -0.41057,-10.38496 -0.86139,4.7819 2.68881,15.35202 2.68881,15.35202 1.01434,3.11549 1.44101,5.80431 1.50542,8.09061 -0.41057,0.16906 -0.78894,0.37837 -1.119,0.57963 -0.10465,-4.66921 -1.61007,-8.17112 -1.61007,-8.17112 -1.1029,4.37135 -7.34192,5.87676 -7.34192,5.87676 z m 7.42243,-2.98668 0.30591,0.86944 -7.04407,4.43574 z m 0.61182,2.11725 0.12075,1.04654 -6.83475,4.23449 z m 0.23346,2.3024 0.0483,0.86139 -6.38392,3.70316 z m -1.82743,3.91247 c -0.0805,0.24151 -0.12881,0.49107 -0.16101,0.73258 l -2.76932,1.54567 c -0.0322,-0.0322 -0.0724,-0.0644 -0.10465,-0.0966 z m 1.10289,4.88656 0.24957,0.58767 c -0.73258,1.12705 -1.36856,1.65838 -1.36856,1.65838 0.43472,-0.74868 0.80503,-1.49736 1.11899,-2.24605 z m -1.3283,3.91247 c 1.1029,-0.43472 2.09309,-0.92579 2.97863,-1.45711 0.18515,0.12881 0.37837,0.23346 0.58768,0.33007 -1.0385,0.66013 -2.22996,1.25585 -3.59046,1.77108 0.008,-0.21736 0.0161,-0.43473 0.0241,-0.64404 z m 1.77108,-4.74971 -0.63598,-1.52151 -0.0161,-0.0322 c -0.0724,-0.14491 -0.12879,-0.26567 -0.18515,-0.40252 -0.55547,-1.38466 0.25761,-3.22014 1.92403,-4.35524 0.55548,-0.37836 1.65032,-1.0224 2.72103,-1.0224 0.53937,0 1.01434,0.16101 1.40881,0.48302 l 2.05284,1.74693 c -0.37837,-0.10466 -0.78088,-0.15295 -1.20755,-0.15295 -1.14316,0 -2.35071,0.38641 -3.40531,1.08679 -1.15925,0.77284 -2.02063,1.84353 -2.42315,3.02694 -0.13686,0.38641 -0.20931,0.77283 -0.23346,1.14314 z m 5.05562,-11.18998 c -0.008,-0.0886 -0.0161,-0.17712 -0.0161,-0.26567 -0.008,-0.13685 -0.0241,-0.26566 -0.0322,-0.40252 l 0.86138,0.72454 1.72277,1.45711 z m 2.86593,3.07523 -0.19321,-0.0966 v 0 l -2.60832,-1.46517 c 0,-0.21736 -0.008,-0.45082 -0.0161,-0.68427 z m -2.81763,-0.0644 c 0.008,-0.1771 0.008,-0.40251 0.0161,-0.67622 l 2.89813,2.11724 0.0564,0.0483 -0.12881,-0.0403 z m 4.37939,-2.02868 0.50718,-0.37032 -0.45887,-2.56001 -0.46692,-0.12881 c -1.04655,-0.28981 -2.1575,-0.97409 -3.07524,-1.65837 0.30592,0.0644 0.60378,0.12881 0.90164,0.20126 l 0.0644,0.0161 0.0322,-0.0564 c 0.0241,-0.0322 1.79522,-3.21208 2.56001,-7.62368 1.43296,3.05914 2.18969,6.42418 2.18969,9.90193 0,1.38467 -0.12075,2.74517 -0.35421,4.07348 -0.46693,-0.21735 -0.958,-0.33006 -1.46517,-0.33006 -0.008,0 -0.0161,0 -0.0241,0 h -0.0403 l -0.0643,0.008 -0.33811,0.0402 c 0.0403,-0.65207 0.0403,-1.16729 0.0322,-1.51346 z M 45.423512,4.6711817 c -0.53938,0.72454 -1.47322,1.48127 -3.04303,1.48127 0,0 0,0 0,0 -0.66819,0 -1.40882,-0.13685 -2.2058,-0.40252 z m -5.59499,1.15121 c 0.92578,0.34616 1.77912,0.51522 2.55196,0.51522 0,0 0,0 0,0 1.76302,0 2.76127,-0.90969 3.30064,-1.71473 l 1.50542,-0.30592 c 6.44028,5.4018 7.34192,11.9547903 6.91525,16.6078903 -0.45082,4.97512 -2.47146,8.84734 -2.75322,9.37061 -0.39447,-0.0966 -0.79699,-0.1771 -1.1995,-0.24956 -0.41057,-0.31397 -0.76479,-0.61988 -1.0546,-0.87749 0.63598,0.0966 1.27196,0.20931 1.89184,0.34617 0.60377,-1.22366 2.06089,-4.5404 2.43925,-8.63803 0.60378,-6.56104 -1.73082,-12.0191803 -6.93136,-16.2375703 -0.62792,1.119 -1.91598,2.38291 -4.11372,2.38291 0,0 0,0 0,0 -1.11096,0 -2.35876,-0.32202 -3.73537,-0.958 z m -2.76128,0.56352 c -0.65208,0.80503 -1.72278,1.63422 -3.39724,1.63422 0,0 0,0 0,0 -0.72454,0 -1.51348,-0.15295 -2.35071,-0.45887 z m -6.08607,1.2478 c 0.96604,0.37837 1.86769,0.57158 2.68883,0.57158 0,0 0,0 0,0 1.86767,0 3.01082,-0.98214 3.67095,-1.87573 l 0.95799,-0.19321 c -0.73257,1.27195 -2.21384,2.75322 -4.62894,2.75322 0,0 0,0 0,0 -1.16731,0 -2.45536,-0.34617 -3.84003,-1.01434 z m -3.17989,0.65209 c -0.75673,0.79698 -1.94013,1.56981 -3.6629,1.56981 -0.69234,0 -1.42492,-0.12075 -2.20581,-0.37031 z m -6.23097,1.28 c 0.90969,0.31396 1.76302,0.4749803 2.56001,0.4749803 1.92404,0 3.18795,-0.9258003 3.96883,-1.8113403 l 1.03849,-0.20931 c -0.76478,1.1351 -2.3024,2.7049203 -4.99926,2.7049203 -1.16731,0 -2.43122,-0.30591 -3.77563,-0.9096903 z m -3.26039,0.6681803 c -0.74063,0.53937 -1.92404,1.00629 -3.80782,1.00629 -0.29786,0 -0.60377,-0.0161 -0.92579,-0.0322 z m -6.93136,1.41686 1.58592,-0.32201 c 0.53937,0.0564 1.05459,0.0886 1.53762,0.0886 2.17359,0 3.4536,-0.61183 4.19424,-1.26391 l 1.12705,-0.2334503 c -0.66819,0.9740903 -2.1414,2.1816403 -5.32129,2.1816403 -0.55548,0 -1.1512,-0.0402 -1.77913,-0.1127 1.32026,1.33636 3.04303,3.34895 4.51625,5.98946 2.3668,4.24254 4.46794,10.89213 1.83548,19.23229 1.36856,-0.93383 3.34894,-2.18969 5.8204,-3.44555 3.80782,-1.94013 9.42697,-4.19423 15.81895,-4.82216 -0.0161,0.0644 -0.0322,0.10466 -0.0322,0.12076 -0.0966,0.20126 -0.19321,0.40252 -0.30592,0.59572 -11.70521,1.27196 -21.01142,8.10671 -22.702,9.41086 3.64682,-9.08079 1.45712,-16.29391 -1.03849,-20.76185 -1.76303,-3.17184 -3.93662,-5.44204 -5.25688,-6.65765 z m -1.8837797,21.05972 c 0,-5.8848 2.1655397,-11.4476 6.1182697,-15.76259 0.29786,0.45888 0.59572,0.9419 0.87748,1.44907 2.11725,3.79171 4.00908,9.57187 2.2541,16.80109 -0.28981,-0.20126 -0.55547,-0.42667 -0.80503,-0.67623 -1.1995,-1.2156 -1.50541,-2.64856 -1.49736,-3.3087 0.0161,-1.1512 -0.39447,-2.23799 -1.12705,-2.97863 -0.54743,-0.55548 -1.23171,-0.86139 -1.91599,-0.86139 -0.0724,0 -0.1449,0 -0.21735,0.008 -0.77284,0.0724 -1.47322,0.49108 -1.916,1.15925 -0.57962,0.8614 -0.69232,2.01259 -0.32201,3.25234 0.54743,1.84354 1.85963,2.03674 2.39901,2.03674 0.0483,0 0.0966,0 0.13686,0 0.92579,1.56177 0.1932,2.85789 -0.36227,3.82392 -0.0724,0.12076 -0.13686,0.23347 -0.19321,0.33812 -0.61988,1.1673 -0.68428,2.35876 -0.69233,2.399 -0.0644,1.08681 0.12881,2.1575 0.48302,3.17184 -0.161,0.0564 -0.31397,0.12076 -0.46692,0.19322 -1.79523,-3.35704 -2.7532197,-7.1246 -2.7532197,-11.04513 z m 3.6629097,12.57466 c -0.0241,-0.0322 -0.0483,-0.0724 -0.0724,-0.10465 0.22541,-0.11271 0.46693,-0.20126 0.71648,-0.24957 0.0724,-0.0161 0.14491,-0.0241 0.21736,-0.0403 0.16907,0.008 0.33812,0.0241 0.49912,0.0564 -0.161,0.0403 -0.322,0.0966 -0.48301,0.1771 -0.25761,0.12076 -0.48302,0.28981 -0.67623,0.48302 -0.0645,-0.1127 -0.12881,-0.21735 -0.20126,-0.32201 z m 7.25337,7.20506 c -0.0322,-0.0161 -0.0564,-0.0402 -0.0886,-0.0564 -0.0483,-0.0322 -0.0966,-0.0645 -0.14492,-0.0966 -1.36855,-0.88554 -2.65661,-1.92403 -3.83196,-3.10744 -1.06265,-1.06265 -2.01259,-2.22189 -2.84177,-3.43749 0.24956,-0.33812 0.57157,-0.61183 0.95799,-0.80504 0.0322,-0.0161 0.0645,-0.0241 0.0966,-0.0403 0.43472,0.0886 0.86139,0.26565 1.25586,0.52327 -0.0805,0.0241 -0.15295,0.0564 -0.22542,0.0886 -0.60377,0.28981 -0.98213,0.87749 -1.09484,1.57788 0.17711,0.2254 0.37031,0.45886 0.57157,0.70038 l 0.85334,0.0644 c 0,0 -0.54743,-1.12704 0.49107,-1.96428 0.24957,0.23346 0.48303,0.49912 0.68429,0.79698 l -0.0242,-0.0161 c -0.50718,0.20126 -0.70844,0.86138 -0.45082,1.48126 0.25761,0.61987 0.87749,0.95799 1.38466,0.76479 l -0.008,-0.12076 c 0.0564,0.2576 0.0886,0.51522 0.1127,0.77283 -0.44276,0.53937 -1.10289,0.20931 -1.10289,0.20931 l -0.008,0.0403 c 0.40252,0.37032 0.80504,0.71648 1.1995,1.0385 0.10466,-0.69233 0.0805,-1.43296 -0.0886,-2.16555 -0.322,-1.42491 -1.119,-2.61637 -2.13334,-3.30869 0.008,0 0.008,-0.008 0.0161,-0.008 -0.008,0 -0.0161,0 -0.0161,0.008 -0.61988,-0.42667 -1.32831,-0.67623 -2.05284,-0.67623 v 0 c -0.2254,0 -0.44276,0.0241 -0.66013,0.0724 -0.12075,0.0241 -0.23346,0.0564 -0.35422,0.0966 -0.15295,-0.24955 -0.28981,-0.47496 -0.41056,-0.68427 0.30591,-0.14491 0.63598,-0.24957 0.9902,-0.30592 0.1932,-0.0322 0.38641,-0.0483 0.57157,-0.0483 2.2702,0 4.38744,2.11725 4.87046,5.00732 0.15296,0.89359 0.12881,1.76302 -0.0403,2.56001 0.0805,0.0644 0.16101,0.12075 0.24151,0.17711 0.20126,-0.87749 0.22542,-1.82743 0.0645,-2.78542 -0.49912,-2.98668 -2.71296,-5.23273 -5.14417,-5.23273 v 0 c -0.15296,0 -0.30592,0.0161 -0.45887,0.0322 v -0.008 l 4.39556,-0.57167 h 0.0322 c 0.0241,0 0.0483,0 0.0724,0 1.99648,0 3.84806,1.86768 4.27473,4.41159 0.36227,2.16555 -0.42667,4.17814 -1.83548,5.11198 -0.0161,-0.0322 -0.0724,-0.0644 -0.12075,-0.0966 z m 3.38115,0.11271 c 0.0322,0.20931 0.0805,0.41057 0.12075,0.61183 -1.0546,-0.15296 -1.98039,-0.39447 -2.78542,-0.71649 0.161,-0.13684 0.30591,-0.28981 0.44277,-0.45886 0.67623,0.25761 1.42491,0.44276 2.2219,0.56352 z m -2.97058,0.14491 c 0.0483,-0.0322 0.0966,-0.0724 0.14491,-0.11271 0.85333,0.36227 1.85158,0.61988 2.98667,0.77283 0.0886,0.35422 0.19322,0.70039 0.31396,1.0385 -1.19144,-0.46692 -2.34265,-1.0385 -3.44554,-1.69862 z m 3.44554,-10.44131 c -0.0564,-0.0886 -0.10465,-0.18516 -0.15295,-0.27372 -0.008,-0.0161 -0.0161,-0.0241 -0.0241,-0.0402 -0.0483,-0.0886 -0.0886,-0.18516 -0.13686,-0.28177 -0.008,-0.0161 -0.0161,-0.0322 -0.0241,-0.0483 -0.0403,-0.0966 -0.0805,-0.19321 -0.12076,-0.29786 -0.008,-0.0161 -0.008,-0.0322 -0.0161,-0.0483 -0.0403,-0.10465 -0.0724,-0.20931 -0.10466,-0.32201 0,-0.0161 -0.008,-0.0242 -0.008,-0.0402 -0.0322,-0.1127 -0.0645,-0.23346 -0.0886,-0.34617 -0.50717,-2.23799 0.27372,-4.32304 1.73887,-4.6531 0.0564,-0.0161 0.12076,-0.0241 0.17712,-0.0322 0.0161,0 0.0322,0 0.0483,-0.008 0.0564,-0.008 0.10465,-0.008 0.161,-0.008 0.008,0 0.0161,0 0.0161,0 0.0724,0 0.15296,0.008 0.22541,0.0161 0.008,0 0.0241,0 0.0322,0 0.0724,0.008 0.1449,0.0241 0.21736,0.0403 0.0161,0 0.0241,0.008 0.0403,0.008 0.0724,0.0161 0.1449,0.0402 0.21737,0.0724 0.008,0.008 0.0241,0.008 0.0322,0.0161 0.0724,0.0322 0.1449,0.0644 0.21735,0.0966 0.008,0.008 0.0161,0.008 0.0241,0.0161 0.0724,0.0402 0.15297,0.0805 0.22542,0.1288 0,0 0,0 0,0 0.0724,0.0483 0.14491,0.0966 0.21736,0.15296 0.008,0.008 0.0161,0.008 0.0241,0.0161 0.0643,0.0564 0.13686,0.1127 0.20126,0.16905 0.008,0.008 0.0241,0.0161 0.0322,0.0322 0.0643,0.0643 0.12881,0.12075 0.19321,0.19321 0.008,0.008 0.0241,0.0241 0.0322,0.0322 0.0643,0.0645 0.12075,0.13686 0.18515,0.20931 0.008,0.008 0.0161,0.0241 0.0242,0.0322 0.0643,0.0805 0.12075,0.16101 0.17711,0.24151 0,0.008 0.008,0.008 0.008,0.0161 0.0564,0.0886 0.11271,0.16905 0.16906,0.26565 0,0.008 0.008,0.008 0.008,0.0161 0.0564,0.0886 0.10465,0.18515 0.15296,0.28176 0.008,0.0161 0.0161,0.0241 0.0161,0.0403 0.0483,0.0966 0.0886,0.18516 0.13685,0.28176 0.008,0.0161 0.0161,0.0322 0.0241,0.0483 0.0403,0.0966 0.0805,0.19322 0.12076,0.29787 0.008,0.0161 0.008,0.0322 0.0161,0.0483 0.0403,0.10465 0.0724,0.20931 0.10466,0.32201 0,0.0161 0.008,0.0241 0.008,0.0403 0.0322,0.1127 0.0643,0.23345 0.0886,0.34616 0.29786,1.32026 0.14491,2.58416 -0.32201,3.4697 -0.78088,0.24956 -1.49737,0.65208 -2.1414,1.19951 -0.0564,-0.008 -0.10465,-0.0161 -0.161,-0.0322 -0.0161,0 -0.0241,-0.008 -0.0403,-0.008 -0.0724,-0.0161 -0.14491,-0.0403 -0.21736,-0.0724 -0.0161,-0.008 -0.0241,-0.008 -0.0403,-0.0161 -0.0724,-0.0322 -0.14491,-0.0644 -0.21736,-0.0966 -0.008,-0.008 -0.0161,-0.008 -0.0242,-0.0161 -0.0724,-0.0403 -0.14491,-0.0805 -0.22541,-0.12881 0,0 0,0 0,0 -0.0724,-0.0483 -0.1449,-0.0966 -0.21736,-0.15295 -0.008,-0.008 -0.0161,-0.0161 -0.0241,-0.0161 -0.0643,-0.0564 -0.13685,-0.1127 -0.20126,-0.16905 -0.008,-0.008 -0.0242,-0.0161 -0.0322,-0.0322 -0.0644,-0.0564 -0.1288,-0.12076 -0.18515,-0.19321 -0.008,-0.008 -0.0242,-0.0241 -0.0322,-0.0322 -0.0643,-0.0644 -0.12075,-0.13686 -0.1771,-0.20931 -0.008,-0.008 -0.0161,-0.0241 -0.0241,-0.0322 -0.0564,-0.0805 -0.12075,-0.15295 -0.17711,-0.24151 -0.008,-0.008 -0.008,-0.0161 -0.0161,-0.0161 -0.0564,-0.0805 -0.1127,-0.16905 -0.16906,-0.25761 0.0161,-0.0161 0.0161,-0.0161 0.008,-0.0241 z m 8.01816,17.21166 c -0.27371,0.0402 -0.54743,0.0644 -0.81309,0.0644 -3.22818,0 -6.22292,-3.00279 -6.91524,-7.10847 -0.74869,-4.45184 1.50541,-8.50922 5.02342,-9.07274 0.2737,-0.0403 0.54741,-0.0644 0.81308,-0.0644 3.22819,0 6.22292,3.00277 6.91525,7.10845 0.74869,4.45185 -1.50541,8.51728 -5.02342,9.07276 z m 7.01991,-3.63072 -4.90267,3.25234 v -0.008 c 0.93384,-0.57157 1.73083,-1.41686 2.33461,-2.50365 0.99019,-1.78718 1.32831,-4.00103 0.94993,-6.23097 -0.70843,-4.23449 -3.84806,-7.42243 -7.29361,-7.42243 v 0 c -0.21736,0 -0.43472,0.0161 -0.65208,0.0403 v -0.008 l 6.23902,-0.80503 h 0.0483 c 0.0322,0 0.0724,0 0.10465,0 2.83372,0 5.4662,2.64856 6.06997,6.25512 0.53938,3.21209 -0.70843,6.20682 -2.89813,7.43047 z m 10.07904,-6.65764 c -2.3185,2.3185 -5.04757,4.08958 -8.0101,5.24884 0.70844,-1.0224 1.1673,-2.30241 1.30416,-3.68707 1.44907,-0.53937 2.71296,-1.1834 3.80782,-1.88378 0.53131,0.20931 1.12705,0.32201 1.76302,0.32201 0.42667,0 0.86139,-0.0564 1.28806,-0.15295 -0.0564,0.0564 -0.10465,0.10466 -0.15296,0.15295 z m -1.14315,-0.72453 c -1.2639,0 -2.32655,-0.50717 -2.91422,-1.38466 -0.53938,-0.81308 -0.63598,-1.85963 -0.26567,-2.93838 0.37837,-1.1029 1.19146,-2.10919 2.27825,-2.84177 0.9902,-0.66013 2.12529,-1.0224 3.19599,-1.0224 1.26391,0 2.32655,0.50717 2.91423,1.38467 1.12705,1.69057 0.22541,4.28278 -2.02064,5.78014 -0.98214,0.65209 -2.11724,1.0224 -3.18794,1.0224 z m 3.57436,-0.12076 c -0.18516,0.0322 -0.37032,0.0403 -0.54742,0.0403 0,0 0,0 0,0 0.20125,-0.10466 0.39446,-0.21736 0.57962,-0.34617 2.46341,-1.64227 3.49385,-4.5082 2.39901,-6.52883 -0.0483,-0.0966 -0.10466,-0.18516 -0.16102,-0.27371 -0.0966,-0.13686 -0.18515,-0.28177 -0.29786,-0.41057 l -0.35421,-0.30591 -0.25761,-0.21737 -0.008,-0.008 c 0.0403,-0.1127 0.0724,-0.22541 0.10466,-0.33811 0.0161,-0.0483 0.0322,-0.10466 0.0403,-0.15296 0.0966,-0.32201 0.1771,-0.64403 0.24151,-0.94994 0.80503,0.84529 1.40881,2.02064 1.63422,3.3731 0.50717,3.01083 -1.00629,5.74795 -3.3731,6.11826 z m 4.72555,-2.4473 -2.89007,1.91599 c 0.45082,-0.37033 0.84528,-0.85334 1.15925,-1.41687 0.66818,-1.1995 0.89359,-2.68881 0.64403,-4.19424 -0.24152,-1.4571 -0.91774,-2.72906 -1.82743,-3.6307 0.0241,-0.11271 0.0483,-0.22541 0.0645,-0.33007 2.57611,2.3024 2.20579,5.5789 2.20579,5.5789 l 2.34265,-1.32026 c 0.20931,-3.77562 -2.2541,-5.07977 -2.2541,-5.07977 l -2.22994,0.45082 c 0.0645,-0.40252 0.1127,-0.78894 0.14491,-1.1351 l 0.39446,-0.0483 h 0.0322 c 0.0241,0 0.0483,0 0.0724,0 1.90793,0 3.67901,1.78719 4.08153,4.21034 0.37031,2.16555 -0.46692,4.17813 -1.94014,4.99927 z"
     id="path126"
     style="stroke-width:0.0805035"
     inkscape:export-xdpi="96"
     inkscape:export-ydpi="96" /></g>
</svg>
