<?xml version="1.0" encoding="UTF-8" standalone="no"?>
<svg
   xmlns:dc="http://purl.org/dc/elements/1.1/"
   xmlns:cc="http://creativecommons.org/ns#"
   xmlns:rdf="http://www.w3.org/1999/02/22-rdf-syntax-ns#"
   xmlns:svg="http://www.w3.org/2000/svg"
   xmlns="http://www.w3.org/2000/svg"
   xmlns:sodipodi="http://sodipodi.sourceforge.net/DTD/sodipodi-0.dtd"
   xmlns:inkscape="http://www.inkscape.org/namespaces/inkscape"
   version="1.1"
   id="Calque_1"
   x="0px"
   y="0px"
   viewBox="0 0 1133.86 1133.86"
   style="enable-background:new 0 0 1133.86 1133.86;"
   xml:space="preserve"
   sodipodi:docname="valhalla.svg"
   inkscape:version="1.0.1 (3bc2e813f5, 2020-09-07)"><metadata
   id="metadata53"><rdf:RDF><cc:Work
       rdf:about=""><dc:format>image/svg+xml</dc:format><dc:type
         rdf:resource="http://purl.org/dc/dcmitype/StillImage" /><dc:title></dc:title></cc:Work></rdf:RDF></metadata><defs
   id="defs51">
	
	
	
	
	
	
	
	
	
	
	
	
	
	
	
	
	
	
	
	
	
</defs><sodipodi:namedview
   pagecolor="#ffffff"
   bordercolor="#666666"
   borderopacity="1"
   objecttolerance="10"
   gridtolerance="10"
   guidetolerance="10"
   inkscape:pageopacity="0"
   inkscape:pageshadow="2"
   inkscape:window-width="1920"
   inkscape:window-height="1009"
   id="namedview49"
   showgrid="false"
   inkscape:zoom="0.26816002"
   inkscape:cx="495.03642"
   inkscape:cy="490.26395"
   inkscape:window-x="1272"
   inkscape:window-y="-8"
   inkscape:window-maximized="1"
   inkscape:current-layer="Calque_1"
   showguides="true"
   inkscape:guide-bbox="true"><sodipodi:guide
     position="447.02787,182.4691"
     orientation="0,-1"
     id="guide1653" /></sodipodi:namedview>
<style
   type="text/css"
   id="style2">
	.st0{fill:#4F9982;}
</style>

<g
   id="g2099"
   transform="matrix(1.2470376,0,0,1.2470376,-117.50821,-128.42194)"><path
     id="path1940"
     style="color:#000000;font-style:normal;font-variant:normal;font-weight:normal;font-stretch:normal;font-size:medium;line-height:normal;font-family:sans-serif;font-variant-ligatures:normal;font-variant-position:normal;font-variant-caps:normal;font-variant-numeric:normal;font-variant-alternates:normal;font-variant-east-asian:normal;font-feature-settings:normal;font-variation-settings:normal;text-indent:0;text-align:start;text-decoration:none;text-decoration-line:none;text-decoration-style:solid;text-decoration-color:#000000;letter-spacing:normal;word-spacing:normal;text-transform:none;writing-mode:lr-tb;direction:ltr;text-orientation:mixed;dominant-baseline:auto;baseline-shift:baseline;text-anchor:start;white-space:normal;shape-padding:0;shape-margin:0;inline-size:0;clip-rule:nonzero;display:inline;overflow:visible;visibility:visible;isolation:auto;mix-blend-mode:normal;color-interpolation:sRGB;color-interpolation-filters:linearRGB;solid-color:#000000;solid-opacity:1;vector-effect:none;fill:#4f9982;fill-opacity:1;fill-rule:nonzero;stroke:none;stroke-width:67.1625;stroke-linecap:butt;stroke-linejoin:miter;stroke-miterlimit:4;stroke-dasharray:none;stroke-dashoffset:0;stroke-opacity:1;paint-order:markers stroke fill;color-rendering:auto;image-rendering:auto;shape-rendering:auto;text-rendering:auto;enable-background:accumulate;stop-color:#000000"
     d="m 548.853,107.41014 c -248.2369,0 -450.194591,201.95768 -450.194591,450.19461 0,248.2369 201.957711,450.19115 450.194591,450.19115 248.23692,0 450.19118,-201.95427 450.19118,-450.19115 0,-248.23692 -201.95426,-450.19461 -450.19118,-450.19461 z m 0,33.5813 c 230.08829,0 416.60989,186.52505 416.60989,416.61331 0,230.08827 -186.5216,416.60983 -416.60989,416.60983 -230.08826,0 -416.61328,-186.52156 -416.61328,-416.60983 0,-230.08828 186.52502,-416.61331 416.61328,-416.61331 z" /><path
     id="path1942"
     style="color:#000000;font-style:normal;font-variant:normal;font-weight:normal;font-stretch:normal;font-size:medium;line-height:normal;font-family:sans-serif;font-variant-ligatures:normal;font-variant-position:normal;font-variant-caps:normal;font-variant-numeric:normal;font-variant-alternates:normal;font-variant-east-asian:normal;font-feature-settings:normal;font-variation-settings:normal;text-indent:0;text-align:start;text-decoration:none;text-decoration-line:none;text-decoration-style:solid;text-decoration-color:#000000;letter-spacing:normal;word-spacing:normal;text-transform:none;writing-mode:lr-tb;direction:ltr;text-orientation:mixed;dominant-baseline:auto;baseline-shift:baseline;text-anchor:start;white-space:normal;shape-padding:0;shape-margin:0;inline-size:0;clip-rule:nonzero;display:inline;overflow:visible;visibility:visible;isolation:auto;mix-blend-mode:normal;color-interpolation:sRGB;color-interpolation-filters:linearRGB;solid-color:#000000;solid-opacity:1;vector-effect:none;fill:#4f9982;fill-opacity:1;fill-rule:nonzero;stroke:none;stroke-width:63.4391;stroke-linecap:butt;stroke-linejoin:miter;stroke-miterlimit:4;stroke-dasharray:none;stroke-dashoffset:0;stroke-opacity:1;paint-order:markers stroke fill;color-rendering:auto;image-rendering:auto;shape-rendering:auto;text-rendering:auto;enable-background:accumulate;stop-color:#000000"
     d="m 548.853,164.08776 c -217.33264,0 -393.51867,176.18259 -393.51867,393.51527 0,73.90343 20.3882,143.03653 55.82399,202.11387 l 100.19302,-39.83567 -89.74741,56.31326 c 70.59261,105.47075 190.80454,174.92379 327.24907,174.92379 217.33269,0 393.51528,-176.18262 393.51528,-393.51525 0,-127.01521 -60.17775,-239.97499 -153.57599,-311.92566 L 595.56862,226.03984 737.13749,211.97745 C 681.21022,181.44535 617.06042,164.08776 548.853,164.08776 Z"
     sodipodi:nodetypes="sscccsscccs" /><circle
     style="font-variation-settings:normal;opacity:1;vector-effect:none;fill:#ffffff;fill-opacity:1;stroke:none;stroke-width:54.7538;stroke-linecap:butt;stroke-linejoin:miter;stroke-miterlimit:4;stroke-dasharray:none;stroke-dashoffset:0;stroke-opacity:1;paint-order:markers stroke fill;stop-color:#000000;stop-opacity:1"
     id="path1972"
     cx="548.85132"
     cy="557.60303"
     r="128.22456" /><path
     id="81"
     style="fill:#ffffff;fill-opacity:1;stroke:#000000;stroke-width:6.36788;stroke-linecap:butt;stroke-linejoin:miter;stroke-miterlimit:2;stroke-opacity:0"
     d="m 771.0754,264.91741 -35.1004,35.10049 30.5636,30.56359 -12.38899,12.38899 -10.74238,-10.74238 -1.72304,0.17533 c -4.05328,4.83002 -4.97841,11.95652 -2.39041,19.0385 0.54248,1.48077 1.22869,2.93446 2.04943,4.33493 l -8.30038,8.29696 -19.41317,-19.41317 -8.00271,8.00272 19.4166,19.41658 -8.55699,8.55358 c -16.56994,-12.72521 -37.44558,-13.35318 -49.32669,-1.48491 l 25.40408,25.40752 -44.75567,44.75567 c 3.40104,3.1069 6.65387,6.37227 9.74765,9.78526 l 44.77277,-44.77277 25.45882,25.45541 c 11.88546,-11.8959 11.23988,-32.80813 -1.52595,-49.38486 l 8.54673,-8.55015 18.83494,18.83496 8.00272,-8.00271 -18.83496,-18.83153 8.15326,-8.15668 c 7.63425,4.73383 19.57114,4.44048 25.09274,-0.81087 l -12.13923,-12.13923 12.25314,-10.08227 30.0049,27.56233 35.10571,-33.6569 -8.78127,-10.21604 -26.32444,26.32446 -21.09652,-21.09651 26.78309,-24.03357 -10.2097,-12.07274 -25.77265,24.02985 -22.35312,-19.47593 24.88946,-24.01298 z m -282.39762,2.09391 v 49.63804 h 53.36397 v 14.60607 h -31.12471 l 1.63614,11.12274 29.48857,-0.81056 v 10.78433 l -29.69348,0.60716 -1.43123,9.705 h 31.12471 v 10.78435 h -31.12471 l 0.61617,11.33063 30.50854,-1.01847 v 27.30298 c 2.26802,-0.1051 4.53819,-0.15766 6.80864,-0.15731 1.86746,-2.9e-4 3.73476,0.035 5.60087,0.10599 l 0.005,-25.82267 31.3341,1.42824 -0.21464,-13.16939 -30.92508,-1.22559 -0.19963,-9.55876 31.12096,-1.0207 0.004,-9.29146 h -31.12471 l 0.0105,-8.13051 31.11496,-2.65382 -1.63614,-11.12274 -29.48858,0.81056 1.02672,-12.97669 42.40486,-1.62938 h 9.92898 v -49.63804 h -12.4095 l -5.72046,36.02469 -34.37239,-1.35112 -0.85821,-34.67357 h -12.4095 v 37.22852 l -40.75633,-1.63387 10e-4,-36.82024 z m -153.427,0.81429 -10.297,9.54786 38.29111,33.27813 -26.51262,26.5092 -5.3169,-5.31688 17.13545,-15.25997 -8.51688,-8.22128 -16.87398,14.01149 -7.69869,-6.48436 c 5.98816,-8.71932 5.94146,-18.99523 -0.11632,-25.60594 -6.43567,-7.02276 -16.14612,-9.17171 -26.47651,-3.8776 l -4.38132,-1.49063 -10.83748,8.67067 2.47551,2.89718 c -6.50584,8.84113 -6.68004,19.5402 -0.42767,26.3655 6.63421,7.24079 18.77781,8.27058 29.2703,2.48053 l 9.04966,9.04967 -17.01888,16.00843 7.93842,7.93471 17.38268,-15.21584 4.44944,4.02093 -27.82646,27.82646 -35.292,-35.59309 -7.24316,7.29106 43.20887,42.4831 34.4237,-34.16279 6.56523,5.99498 c -5.33353,8.40021 -5.11275,21.62882 0.72535,27.76828 l 13.52148,-13.52147 84.62895,84.62553 c 3.13311,-3.50494 6.4329,-6.85723 9.88793,-10.04529 l -83.6083,-83.53988 12.26472,-14.21368 c -9.95247,-6.95507 -18.46293,-6.50061 -27.38167,-0.96826 l -4.77196,-5.23105 31.72251,-35.31622 z m -77.39606,210.15081 v 12.4095 l 36.21802,1.84103 1.01394,22.978 h -37.23196 v 12.4095 l 37.24622,3.87868 -0.014,21.02588 -37.57436,-2.86022 -0.60191,15.10208 h 38.17627 l -0.21615,21.63905 -39.67639,1.438 2.66058,14.23702 h 37.23196 l -0.21389,22.16595 -37.01807,2.65307 2.65159,11.78734 46.98988,0.62218 c 0,0 4.2916,-45.65876 4.2916,-70.5063 l 90.54347,-4.03631 c -0.1969,-4.27481 -0.22454,-8.27436 -0.089,-12.24186 l -93.72545,-0.003 -1.0207,-74.53884 z m 562.67055,31.02548 v 12.40952 l -2.37937,31.76934 -15.78156,-0.65833 v -19.85111 c -7.46103,-4e-4 -14.35817,4.94304 -18.08907,12.97063 -0.99865,2.14961 -1.74121,4.46787 -2.21025,6.88048 h -12.36504 l 0.27808,-34.17015 -12.68758,2.88806 1.51566,31.27652 -13.88069,0.005 c -0.45721,-2.63907 -1.24379,-5.17546 -2.32999,-7.51344 -3.73038,-8.02849 -10.62426,-12.97389 -18.08566,-12.97405 l 1.66001,20.4814 -30.71134,0.005 c 0.059,1.69296 0.0886,3.38684 0.089,5.08084 7e-5,2.38692 -0.0582,4.77352 -0.17448,7.1576 h 29.13686 v 19.17025 c 7.4614,-1.5e-4 14.35528,-4.94556 18.08565,-12.97404 0.90369,-1.94494 1.60128,-4.02843 2.07338,-6.19621 h 12.62164 v 30.93996 h 12.40951 l 2.59855,-30.87733 9.77675,-0.0627 c 0.46892,2.39423 1.20916,4.6946 2.19998,6.82917 3.73041,8.02852 10.62764,12.97394 18.08908,12.97404 v -19.80321 h 18.16093 l 1.01203,43.94987 c 16.54717,0 32.08228,-0.42934 48.62943,-0.42934 l -0.61317,-12.61483 -36.61537,0.20189 3.10378,-31.04682 32.15402,-0.0608 -0.93934,-12.52368 -33.45528,-0.51187 0.15503,-28.22455 36.2104,-2.08936 -1.15295,-11.90005 -36.07559,-0.50947 z M 440.55885,656.56115 372.07341,723.7088 357.69877,712.28932 c -5.27509,5.27609 -6.65182,13.64801 -3.61303,21.96214 0.73769,2.01949 1.71912,3.98979 2.9219,5.86089 l -11.06232,8.70682 -17.83161,-15.69678 -7.38002,7.38001 17.94194,17.94196 -7.56011,5.5127 -30.35271,-28.72708 -13.15071,12.67078 -30.72564,31.20559 10.80874,6.42081 33.06761,-32.74527 21.69158,23.42114 -11.78313,10.24227 -8.00269,-8.00272 -8.77597,8.77254 8.00613,8.00614 -4.75032,6.69005 -9.54782,-9.64274 -7.35109,7.64791 24.903,27.45249 8.77255,-8.77596 -8.85554,-8.64197 6.59739,-4.96504 9.36032,6.81538 7.96579,-7.03435 -8.55356,-8.55356 11.36877,-10.95526 19.66758,20.18313 -31.33585,32.73548 6.94732,11.13034 33.77238,-35.40175 10.10056,-8.47462 -28.33912,-30.18088 6.0321,-5.61258 15.03334,14.13275 8.71067,-6.36419 -14.63216,-16.0736 9.05525,-11.49966 c 1.79665,1.13131 3.68153,2.06269 5.61113,2.76793 8.31549,3.03931 16.68625,1.66056 21.96213,-3.61644 l -13.35578,-12.03718 69.30978,-70.63816 c -3.41417,-3.09369 -6.68069,-6.3465 -9.7887,-9.74763 z m 216.10066,0.52689 c -3.18815,3.45386 -6.54046,6.7525 -10.04531,9.8845 l 51.19539,50.80962 -16.39606,22.52522 10.42354,11.21642 18.03484,-20.99673 4.89295,6.9482 -17.02429,19.15915 7.64963,6.32718 19.68071,-17.53235 6.31702,6.53468 -17.32032,20.99411 8.0643,8.06431 19.26604,-19.26606 12.34451,12.34452 -34.56324,34.56665 c 12.9278,12.42962 23.87699,26.71989 35.40724,40.42031 l 12.85538,-9.70959 -29.08701,-32.34985 23.14888,-22.51469 8.33662,5.99913 -14.25373,16.39949 c 7.74025,7.74004 18.72418,11.05817 28.81868,8.70411 2.74772,-0.64059 5.36042,-1.68832 7.74952,-3.10664 l 1.6405,1.73735 c 3.51776,-3.40945 8.49023,-6.14482 11.90744,-9.56204 l -3.77976,-2.33353 c 6.01612,-11.81341 1.27855,-28.01418 -6.10383,-35.67863 l -14.78741,14.79082 -8.55014,-8.55356 27.1105,-23.73688 27.83884,26.94804 10.2083,-6.94393 -30.71072,-30.71072 -8.77596,-8.77596 c -10.49431,11.1319 -22.72762,20.39218 -34.45926,30.15996 l -12.32873,-8.05755 19.14287,-19.14972 -8.06087,-8.0643 -19.1463,19.14973 -6.73135,-7.2511 17.61148,-20.16136 -8.06087,-8.06088 -19.1463,19.14629 -8.26617,-8.26617 19.14972,-19.14287 -8.06431,-8.0643 -17.92595,17.91694 z m -114.61776,47.05487 v 52.8097 c -40.3085,-2.17791 -81.90945,-1.42733 -121.9226,-4.0865 l 0.15468,67.36975 -13.00845,0.79365 1.01681,12.59491 10.91751,-0.20855 1.22405,6.52 -12.94127,0.36034 -0.14575,10.50954 39.18331,0.93455 -1.01389,-11.80443 h -12.67297 l -0.0643,-5.15293 12.7406,-2.16551 V 821.751 l -11.67523,-2.52984 -1.00115,-51.32682 h 27.30298 l -1.30127,10.69755 -11.96017,0.57262 -1.73192,10.94842 14.99336,-0.0785 v 7.31842 l -12.25284,0.42934 -1.01204,10.44053 11.61017,1.44961 1.93837,14.40489 12.12584,1.37239 0.58457,-15.28029 11.91049,-1.9466 -1.29862,-10.72074 -11.19644,-0.14908 v -7.31842 h 12.50189 v -10.86987 l -11.06689,-2.31489 -1.435,-8.95528 h 69.49601 l -1.42969,20.39412 -44.95888,-0.29207 c -0.27424,20.35402 -0.57283,42.87928 -0.63542,60.4186 l 12.91738,4.28658 1.02184,-49.35612 33.0847,-1.52768 0.70549,17.7991 -13.88825,2.45232 v 10.86987 l 13.17675,-1.63312 0.31523,9.76356 -13.49539,-0.81543 v 10.87329 h 38.17283 v -10.87329 l -11.96924,-1.2271 -0.60792,-6.08791 h 12.58058 v -10.86987 l -12.89918,-3.3672 0.3186,-16.88422 34.56018,0.0976 -1.22523,48.77066 15.24962,0.093 -2.45006,-60.05013 h -0.0445 v -1.09836 H 554.451 v -21.73631 h 69.49259 v 11.27017 h -13.68914 v 10.86987 l 13.89178,-0.40904 -0.20264,7.72746 -13.38145,1.32579 -0.3111,9.54408 14.8157,0.0979 -0.91413,18.4551 12.20048,-1.32616 v -17.22688 h 12.06737 l 0.31747,-7.80889 -12.38484,-3.06099 0.11036,-5.07325 11.96048,-2.24517 v -10.86987 h -12.0708 c -0.27056,-2.6573 -0.2658,-6.43339 0,-11.27017 l 26.49284,0.81957 0.81355,53.83428 h -13.18616 v 10.87329 l 10.84079,0.62106 2.34876,7.61258 -13.19299,-0.91863 -0.20077,11.78925 38.08164,3.87905 -0.32874,-16.99297 -11.95302,1.32467 0.20826,-6.19298 12.3689,-1.12203 v -10.87329 h -12.57716 l 2.34949,-64.8475 c -42.11073,-0.43551 -87.69013,-3.0655 -123.97598,-3.05767 l 0.009,-50.44878 c -1.86611,0.071 -3.73341,0.10633 -5.60086,0.10598 -2.27046,2.5e-4 -4.54063,-0.0522 -6.80864,-0.15731 z"
     sodipodi:nodetypes="ccccccccccccccccccccccccccccccccccccccccccccccccccccccccccccccccccccccccccccccccccccccccccccccccccccccccccccccccccccccccccccccccccccccccccccccccccccccccccccccccccccscccccccccccccccccccccccccccccccccccccccccccccccccccccccccccccccccsccccccccccccccccccccccccccsccccccccccccccccccccccccccccccccccccccccccccccccccccccccccccccccccccccccccccccccccccccccccccccccccccccccccccccccccccccccccccccccccccccc" /><g
     id="g2073"
     transform="matrix(1.7517699,0,0,1.7517699,-171.26731,-518.06557)"><circle
       style="font-variation-settings:normal;opacity:1;vector-effect:none;fill:#4f9982;fill-opacity:1;stroke:none;stroke-width:24.5077;stroke-linecap:butt;stroke-linejoin:miter;stroke-miterlimit:4;stroke-dasharray:none;stroke-dashoffset:0;stroke-opacity:1;paint-order:markers stroke fill;stop-color:#000000;stop-opacity:1"
       id="path1972-8"
       cx="411.0806"
       cy="614.04675"
       r="57.393078" /><ellipse
       style="font-variation-settings:normal;opacity:1;vector-effect:none;fill:#ffffff;fill-opacity:1;stroke:none;stroke-width:7.07069;stroke-linecap:butt;stroke-linejoin:miter;stroke-miterlimit:4;stroke-dasharray:none;stroke-dashoffset:0;stroke-opacity:1;paint-order:markers stroke fill;stop-color:#000000;stop-opacity:1"
       id="path1972-8-6"
       cx="666.47083"
       cy="215.66481"
       rx="13.060617"
       ry="20.993031"
       transform="rotate(38.767042)" /></g></g></svg>
